<svg width="34" height="34" viewBox="0 0 34 34" fill="none" xmlns="http://www.w3.org/2000/svg">
<path d="M28.0939 25.8914H26.6967V23.846C27.2184 23.7852 27.7184 23.6022 28.1561 23.3118C28.5938 23.0214 28.9567 22.6319 29.2155 22.1748C29.4743 21.7178 29.6217 21.2061 29.6456 20.6814C29.6694 20.1567 29.5692 19.6338 29.353 19.1551L27.6131 15.2956C27.4994 15.0442 27.3157 14.831 27.0839 14.6815C26.8521 14.5319 26.5821 14.4524 26.3063 14.4524C26.0304 14.4524 25.7604 14.5319 25.5286 14.6815C25.2968 14.831 25.1131 15.0442 24.9994 15.2956L23.2516 19.1551C23.0353 19.6338 22.9351 20.1567 22.959 20.6814C22.9829 21.2061 23.1302 21.7178 23.389 22.1748C23.6478 22.6319 24.0108 23.0214 24.4484 23.3118C24.8861 23.6022 25.3861 23.7852 25.9078 23.846V25.8914H17.4078V22.826C18.1069 22.761 18.7803 22.53 19.3722 22.1524C19.964 21.7748 20.4572 21.2613 20.8108 20.6548C21.1643 20.0482 21.368 19.366 21.4049 18.6649C21.4418 17.9638 21.3109 17.264 21.023 16.6237L18.6509 11.3617C18.5074 11.0441 18.2754 10.7746 17.9825 10.5856C17.6897 10.3966 17.3486 10.296 17.0001 10.296C16.6516 10.296 16.3104 10.3966 16.0176 10.5856C15.7248 10.7746 15.4927 11.0441 15.3492 11.3617L12.9798 16.6237C12.6918 17.2646 12.561 17.965 12.5984 18.6667C12.6357 19.3684 12.8401 20.051 13.1945 20.6577C13.5489 21.2644 14.0431 21.7777 14.636 22.1549C15.2289 22.5321 15.9032 22.7621 16.603 22.826V25.8914H8.10297V23.846C8.62468 23.7852 9.12468 23.6022 9.56234 23.3118C10 23.0214 10.363 22.6319 10.6218 22.1748C10.8806 21.7178 11.0279 21.2061 11.0518 20.6814C11.0757 20.1567 10.9754 19.6338 10.7592 19.1551L9.01141 15.2956C8.89772 15.0442 8.71396 14.831 8.48217 14.6815C8.25038 14.5319 7.98038 14.4524 7.70453 14.4524C7.42869 14.4524 7.15869 14.5319 6.9269 14.6815C6.69511 14.831 6.51135 15.0442 6.39766 15.2956L4.65782 19.1551C4.4416 19.6338 4.34135 20.1567 4.36523 20.6814C4.38911 21.2061 4.53644 21.7178 4.79525 22.1748C5.05405 22.6319 5.41703 23.0214 5.8547 23.3118C6.29236 23.6022 6.79236 23.7852 7.31407 23.846V25.8914H5.90625C5.30308 25.9117 4.73143 26.1657 4.31195 26.5996C3.89247 27.0335 3.65798 27.6134 3.65798 28.2169C3.65798 28.8204 3.89247 29.4003 4.31195 29.8342C4.73143 30.2681 5.30308 30.5221 5.90625 30.5424H28.0939C28.4059 30.553 28.7169 30.5006 29.0082 30.3885C29.2996 30.2764 29.5654 30.1068 29.7898 29.8898C30.0143 29.6728 30.1928 29.4129 30.3147 29.1255C30.4366 28.8381 30.4994 28.5291 30.4994 28.2169C30.4994 27.9047 30.4366 27.5957 30.3147 27.3083C30.1928 27.0209 30.0143 26.761 29.7898 26.544C29.5654 26.327 29.2996 26.1574 29.0082 26.0453C28.7169 25.9332 28.4059 25.8808 28.0939 25.8914ZM24.1733 21.9096C23.942 21.5531 23.8041 21.1442 23.7721 20.7205C23.74 20.2967 23.815 19.8717 23.99 19.4845L25.7298 15.6249C25.7801 15.5127 25.8618 15.4175 25.965 15.3506C26.0683 15.2838 26.1886 15.2482 26.3116 15.2482C26.4345 15.2482 26.5549 15.2838 26.6581 15.3506C26.7613 15.4175 26.843 15.5127 26.8933 15.6249L28.6305 19.4845C28.792 19.8407 28.8689 20.2295 28.8553 20.6204C28.8417 21.0113 28.7378 21.3938 28.5519 21.7379C28.3659 22.082 28.1029 22.3785 27.7834 22.6041C27.4639 22.8297 27.0965 22.9784 26.71 23.0385V21.6945L27.8894 21.1818L27.56 20.454L26.6967 20.8259V17.9226H25.8998V23.0385C25.5489 22.9821 25.2138 22.8524 24.9164 22.6579C24.6189 22.4634 24.3657 22.2085 24.1733 21.9096ZM13.9813 20.3956C13.6497 19.889 13.4515 19.3068 13.4051 18.7031C13.3586 18.0994 13.4654 17.4938 13.7156 16.9424L16.077 11.6884C16.1561 11.5076 16.2861 11.3538 16.4513 11.2458C16.6164 11.1378 16.8094 11.0802 17.0067 11.0802C17.204 11.0802 17.3971 11.1378 17.5622 11.2458C17.7273 11.3538 17.8574 11.5076 17.9364 11.6884L20.3058 16.9478C20.5396 17.4671 20.6473 18.0344 20.6201 18.6033C20.5929 19.1722 20.4316 19.7266 20.1493 20.2213C19.867 20.716 19.4717 21.1369 18.9957 21.4497C18.5197 21.7625 17.9766 21.9583 17.4105 22.0212V14.8759H16.6136V19.0621L15.2244 18.4618L14.9083 19.1949L16.603 19.9228V22.0159C16.0709 21.9588 15.5582 21.7838 15.1024 21.5035C14.6465 21.2232 14.259 20.8447 13.968 20.3956H13.9813ZM5.57953 21.9096C5.34803 21.5532 5.21012 21.1441 5.17855 20.7202C5.14698 20.2963 5.22277 19.8713 5.39891 19.4845L7.1361 15.6249C7.1864 15.5127 7.26808 15.4175 7.37129 15.3506C7.47451 15.2838 7.59485 15.2482 7.71782 15.2482C7.84078 15.2482 7.96112 15.2838 8.06434 15.3506C8.16755 15.4175 8.24923 15.5127 8.29953 15.6249L10.0367 19.4845C10.1983 19.8417 10.2749 20.2314 10.2605 20.6232C10.2461 21.015 10.1411 21.3981 9.95376 21.7424C9.76639 22.0868 9.50176 22.3831 9.18064 22.6079C8.85952 22.8328 8.49064 22.9802 8.10297 23.0385V17.9226H7.3061V20.8259L6.44282 20.454L6.12672 21.1845L7.3061 21.6998V23.0279C6.95607 22.9727 6.62152 22.8447 6.3241 22.6521C6.02669 22.4594 5.77302 22.2065 5.57953 21.9096ZM28.0939 29.7509H5.90625C5.51185 29.7344 5.13906 29.5662 4.86581 29.2813C4.59256 28.9964 4.43999 28.617 4.43999 28.2222C4.43999 27.8275 4.59256 27.448 4.86581 27.1631C5.13906 26.8782 5.51185 26.71 5.90625 26.6935H28.0939C28.3 26.6849 28.5057 26.7181 28.6987 26.7911C28.8917 26.864 29.0679 26.9752 29.2167 27.118C29.3656 27.2608 29.4841 27.4323 29.565 27.622C29.6459 27.8118 29.6876 28.0159 29.6876 28.2222C29.6876 28.4285 29.6459 28.6327 29.565 28.8224C29.4841 29.0122 29.3656 29.1836 29.2167 29.3264C29.0679 29.4692 28.8917 29.5804 28.6987 29.6534C28.5057 29.7263 28.3 29.7595 28.0939 29.7509ZM11.2905 12.3764C11.4647 12.1558 11.6867 11.9777 11.9398 11.8553C12.1928 11.7329 12.4703 11.6695 12.7514 11.6698V12.4667C12.4696 12.4667 12.1994 12.5786 12.0001 12.7779C11.8009 12.9771 11.6889 13.2474 11.6889 13.5292C11.6889 13.6348 11.6469 13.7362 11.5722 13.8109C11.4975 13.8856 11.3961 13.9276 11.2905 13.9276C11.1848 13.9276 11.0835 13.8856 11.0087 13.8109C10.934 13.7362 10.892 13.6348 10.892 13.5292C10.892 13.2474 10.7801 12.9771 10.5808 12.7779C10.3816 12.5786 10.1113 12.4667 9.82953 12.4667V11.6698C10.1106 11.6695 10.3881 11.7329 10.6412 11.8553C10.8942 11.9777 11.1162 12.1558 11.2905 12.3764ZM21.2514 12.4667V11.6698C21.5311 11.6707 21.8071 11.7347 22.0586 11.857C22.3102 11.9793 22.5309 12.1569 22.7044 12.3764C22.8795 12.1548 23.1028 11.976 23.3573 11.8535C23.6118 11.7311 23.8909 11.6683 24.1733 11.6698V12.4667C23.8915 12.4667 23.6212 12.5786 23.422 12.7779C23.2227 12.9771 23.1108 13.2474 23.1108 13.5292C23.1108 13.6348 23.0688 13.7362 22.9941 13.8109C22.9194 13.8856 22.818 13.9276 22.7123 13.9276C22.6067 13.9276 22.5053 13.8856 22.4306 13.8109C22.3559 13.7362 22.3139 13.6348 22.3139 13.5292C22.3139 13.2474 22.202 12.9771 22.0027 12.7779C21.8035 12.5786 21.5332 12.4667 21.2514 12.4667ZM14.4833 6.51667V5.71979C14.9933 5.72113 15.4941 5.85596 15.9359 6.11086C16.3777 6.36576 16.745 6.73186 17.0014 7.17276C17.2578 6.73186 17.6252 6.36576 18.0669 6.11086C18.5087 5.85596 19.0095 5.72113 19.5195 5.71979V6.51667C18.956 6.51667 18.4154 6.74055 18.0169 7.13906C17.6184 7.53758 17.3945 8.07808 17.3945 8.64167H16.5977C16.5977 8.07992 16.3752 7.54102 15.979 7.14281C15.5828 6.7446 15.045 6.51948 14.4833 6.51667ZM29.5761 6.75307C29.6218 6.55083 29.6449 6.34416 29.6452 6.13682C29.6565 5.77829 29.5956 5.42114 29.4662 5.08658C29.3368 4.75203 29.1415 4.44688 28.8918 4.18927C28.6422 3.93166 28.3434 3.72684 28.0131 3.58696C27.6828 3.44708 27.3277 3.375 26.969 3.375C26.6103 3.375 26.2552 3.44708 25.9249 3.58696C25.5946 3.72684 25.2957 3.93166 25.0461 4.18927C24.7965 4.44688 24.6012 4.75203 24.4718 5.08658C24.3424 5.42114 24.2815 5.77829 24.2928 6.13682C24.2924 6.29804 24.3066 6.45897 24.3353 6.6176H23.7616C23.388 6.6336 23.0351 6.79326 22.7764 7.06324C22.5177 7.33323 22.3733 7.69269 22.3733 8.06659C22.3733 8.44049 22.5177 8.79995 22.7764 9.06994C23.0351 9.33992 23.388 9.49957 23.7616 9.51557H28.9705C29.3005 9.51555 29.6207 9.40274 29.8779 9.19583C30.135 8.98892 30.3138 8.70034 30.3845 8.37793C30.4551 8.05551 30.4135 7.71862 30.2665 7.4231C30.1195 7.12758 29.8759 6.89118 29.5761 6.75307ZM28.9705 8.7187H23.7616C23.5958 8.70811 23.4403 8.6348 23.3267 8.51367C23.213 8.39254 23.1498 8.23268 23.1498 8.06659C23.1498 7.90049 23.213 7.74063 23.3267 7.6195C23.4403 7.49837 23.5958 7.42506 23.7616 7.41448H24.8666C24.9322 7.41382 24.9966 7.39728 25.0544 7.36629C25.1123 7.3353 25.1617 7.29077 25.1986 7.23651C25.235 7.18189 25.2574 7.11918 25.2638 7.05388C25.2703 6.98858 25.2607 6.92269 25.2358 6.86198C25.1383 6.6327 25.0886 6.38596 25.0897 6.13682C25.0802 5.88409 25.1218 5.63203 25.2119 5.39573C25.3021 5.15943 25.439 4.94375 25.6144 4.76158C25.7899 4.57941 26.0003 4.4345 26.233 4.33553C26.4658 4.23655 26.7161 4.18553 26.969 4.18553C27.2219 4.18553 27.4722 4.23655 27.705 4.33553C27.9377 4.4345 28.1481 4.57941 28.3235 4.76158C28.499 4.94375 28.6359 5.15943 28.7261 5.39573C28.8162 5.63203 28.8578 5.88409 28.8483 6.13682C28.8497 6.38857 28.8 6.63798 28.7022 6.86995C28.6778 6.92741 28.6673 6.98981 28.6714 7.05209C28.6756 7.11438 28.6943 7.17482 28.7261 7.22854C28.7586 7.28226 28.8031 7.32772 28.8561 7.36136C28.9091 7.39501 28.9691 7.41591 29.0316 7.42245C29.2035 7.43055 29.3651 7.5066 29.4809 7.63388C29.5967 7.76116 29.6572 7.92923 29.6491 8.10112C29.641 8.27301 29.565 8.43465 29.4377 8.55047C29.3104 8.66628 29.1424 8.7268 28.9705 8.7187ZM3.58203 8.06526C3.58274 8.44969 3.73576 8.81818 4.0076 9.09001C4.27943 9.36185 4.64792 9.51487 5.03235 9.51557H10.2413C10.6148 9.49957 10.9678 9.33992 11.2264 9.06994C11.4851 8.79995 11.6295 8.44049 11.6295 8.06659C11.6295 7.69269 11.4851 7.33323 11.2264 7.06324C10.9678 6.79326 10.6148 6.6336 10.2413 6.6176H9.6675C9.69623 6.45897 9.71046 6.29804 9.71 6.13682C9.70991 5.75909 9.62988 5.38565 9.4752 5.04104C9.32051 4.69643 9.09465 4.38845 8.81247 4.13734C8.53029 3.88622 8.19817 3.69766 7.83793 3.58403C7.4777 3.4704 7.09749 3.43428 6.7223 3.47805C6.34711 3.52181 5.98542 3.64446 5.661 3.83795C5.33659 4.03144 5.05678 4.29138 4.83997 4.6007C4.62316 4.91001 4.47425 5.26171 4.40303 5.63266C4.33181 6.00362 4.33988 6.38546 4.42672 6.75307C4.17449 6.86719 3.96059 7.05173 3.81074 7.28452C3.66089 7.5173 3.58147 7.78842 3.58203 8.06526ZM4.97125 7.42245C5.03369 7.41591 5.09376 7.39501 5.14676 7.36136C5.19975 7.32772 5.24424 7.28226 5.27672 7.22854C5.31067 7.1759 5.33173 7.116 5.33819 7.05369C5.34465 6.99139 5.33633 6.92844 5.31391 6.86995C5.20528 6.61331 5.15505 6.33573 5.16685 6.0573C5.17864 5.77886 5.25217 5.50653 5.38212 5.25999C5.51206 5.01346 5.69518 4.79889 5.91821 4.6318C6.14125 4.46471 6.39864 4.34927 6.67175 4.29385C6.94487 4.23842 7.22689 4.24438 7.49742 4.31131C7.76795 4.37824 8.02022 4.50445 8.23599 4.68083C8.45177 4.8572 8.62564 5.07932 8.74505 5.33113C8.86445 5.58294 8.9264 5.85814 8.92641 6.13682C8.92301 6.38685 8.86879 6.63357 8.76703 6.86198C8.74212 6.92269 8.73249 6.98858 8.73897 7.05388C8.74545 7.11918 8.76786 7.18189 8.80422 7.23651C8.84109 7.29077 8.89055 7.3353 8.94837 7.36629C9.00619 7.39728 9.07065 7.41382 9.13625 7.41448H10.2413C10.407 7.42506 10.5625 7.49837 10.6762 7.6195C10.7898 7.74063 10.8531 7.90049 10.8531 8.06659C10.8531 8.23268 10.7898 8.39254 10.6762 8.51367C10.5625 8.6348 10.407 8.70811 10.2413 8.7187H5.03235C4.94723 8.72271 4.86216 8.70992 4.782 8.68105C4.70183 8.65219 4.62813 8.60781 4.56511 8.55047C4.43783 8.43465 4.36178 8.27301 4.35368 8.10112C4.34557 7.92923 4.40609 7.76116 4.52191 7.63388C4.63773 7.5066 4.79936 7.43055 4.97125 7.42245Z" fill="white"/>
</svg>
