<svg width="35" height="34" viewBox="0 0 35 34" fill="none" xmlns="http://www.w3.org/2000/svg">
<g clip-path="url(#clip0_343_9492)">
<path d="M11.1953 22.8378C11.1953 23.2139 11.3438 23.5642 11.6196 23.8269C12.1817 24.373 13.0938 24.373 13.6559 23.8269L13.9582 23.5333V27.4793C13.9582 27.6905 14.1385 27.8657 14.3559 27.8657C14.5733 27.8657 14.7536 27.6905 14.7536 27.4793V22.7605L22.4589 15.2754L30.1643 22.7605V27.4793C30.1643 27.6905 30.3446 27.8657 30.562 27.8657C30.7794 27.8657 30.9597 27.6905 30.9597 27.4793V23.5333L31.262 23.8269C31.5324 24.0896 31.8983 24.239 32.2802 24.239C32.662 24.239 33.0279 24.0948 33.2983 23.8269C33.5688 23.5642 33.7226 23.2087 33.7226 22.8378C33.7226 22.4669 33.5741 22.1114 33.2983 21.8487L23.4771 12.3081C22.9309 11.7775 21.9817 11.7775 21.4408 12.3081L11.6196 21.8487C11.3438 22.1114 11.1953 22.4669 11.1953 22.8378ZM12.1817 22.3948L22.0029 12.8542C22.1249 12.7357 22.2893 12.6687 22.4589 12.6687C22.6286 12.6687 22.793 12.7357 22.915 12.8542L32.7362 22.3948C32.9855 22.6369 32.9855 23.0387 32.7362 23.2808C32.4923 23.5178 32.068 23.5178 31.8241 23.2808L30.843 22.3278L22.74 14.4563C22.5862 14.3069 22.3317 14.3069 22.1779 14.4563L13.0938 23.2808C12.8499 23.5178 12.4256 23.5178 12.1817 23.2808C11.9271 23.0387 11.9271 22.6421 12.1817 22.3948Z" fill="white"/>
<path d="M20.3555 20.2991C20.3555 21.4272 21.2994 22.3442 22.4608 22.3442C23.6221 22.3442 24.5661 21.4272 24.5661 20.2991C24.5661 19.1709 23.6221 18.2539 22.4608 18.2539C21.2994 18.2539 20.3555 19.1657 20.3555 20.2991ZM23.7759 20.2991C23.7759 20.9997 23.1873 21.5715 22.4661 21.5715C21.7449 21.5715 21.1562 20.9997 21.1562 20.2991C21.1562 19.5985 21.7449 19.0266 22.4661 19.0266C23.1873 19.0266 23.7759 19.5933 23.7759 20.2991Z" fill="white"/>
<path d="M5.70751 25.7979C8.45448 25.7979 10.6924 23.6239 10.6924 20.9554C10.6924 18.7042 8.76205 9.71484 5.70751 9.71484C2.65296 9.71484 0.722656 18.7094 0.722656 20.9554C0.722656 23.6239 2.96054 25.7979 5.70751 25.7979ZM5.70751 10.4824C7.76508 10.4824 9.8969 18.2561 9.8969 20.9503C9.8969 23.1964 8.01963 25.02 5.70751 25.02C3.40069 25.02 1.51811 23.1964 1.51811 20.9503C1.51811 18.2612 3.64993 10.4824 5.70751 10.4824Z" fill="white"/>
<path d="M33.9406 28.6394H28.0012C27.7838 28.6394 27.6035 28.8146 27.6035 29.0258V32.4412H25.7262V24.3121C25.7262 24.1009 25.5459 23.9258 25.3285 23.9258H19.5959C19.3785 23.9258 19.1982 24.1009 19.1982 24.3121V32.4412H17.6232V29.0258C17.6232 28.8146 17.4429 28.6394 17.2254 28.6394H7.05952V26.8776C7.05952 26.6664 6.87921 26.4912 6.66179 26.4912C6.44437 26.4912 6.26406 26.6664 6.26406 26.8776V28.6394H5.15043V26.8776C5.15043 26.6664 4.97012 26.4912 4.7527 26.4912C4.53527 26.4912 4.35497 26.6664 4.35497 26.8776V28.6394H1.06179C0.844366 28.6394 0.664062 28.8146 0.664062 29.0258V32.8276C0.664062 33.0388 0.844366 33.214 1.06179 33.214H33.9406C34.158 33.214 34.3383 33.0388 34.3383 32.8276V29.0258C34.3383 28.8146 34.158 28.6394 33.9406 28.6394ZM1.45952 29.4121H16.8224V32.4412H1.45952V29.4121ZM19.9936 32.4412V24.6985H24.9307V32.4412H19.9936ZM33.5429 32.4412H28.3989V29.4121H33.5429V32.4412Z" fill="white"/>
<path d="M14.2085 10.4035C16.2236 10.4035 17.8623 8.81166 17.8623 6.85408C17.8623 4.89651 16.2236 3.30469 14.2085 3.30469C12.1933 3.30469 10.5547 4.89651 10.5547 6.85408C10.5547 8.81166 12.1933 10.4035 14.2085 10.4035ZM14.2085 4.07741C15.7835 4.07741 17.0668 5.32408 17.0668 6.85408C17.0668 8.38408 15.7835 9.63075 14.2085 9.63075C12.6335 9.63075 11.3501 8.38408 11.3501 6.85408C11.3501 5.32408 12.6335 4.07741 14.2085 4.07741Z" fill="white"/>
<path d="M14.2063 2.46846C14.4237 2.46846 14.604 2.29331 14.604 2.08209V1.17543C14.604 0.964214 14.4237 0.789062 14.2063 0.789062C13.9889 0.789062 13.8086 0.964214 13.8086 1.17543V2.08209C13.8086 2.29846 13.9889 2.46846 14.2063 2.46846Z" fill="white"/>
<path d="M13.8086 11.6168V12.5235C13.8086 12.7347 13.9889 12.9099 14.2063 12.9099C14.4237 12.9099 14.604 12.7347 14.604 12.5235V11.6168C14.604 11.4056 14.4237 11.2305 14.2063 11.2305C13.9889 11.2305 13.8086 11.4056 13.8086 11.6168Z" fill="white"/>
<path d="M11.9614 2.59563C12.0251 2.74503 12.1735 2.8326 12.3273 2.8326C12.3804 2.8326 12.4281 2.8223 12.4811 2.80169C12.6826 2.71927 12.7781 2.4926 12.6985 2.29685L12.3432 1.45715C12.2584 1.26139 12.0251 1.16866 11.8235 1.24594C11.622 1.32836 11.5266 1.55503 11.6061 1.75079L11.9614 2.59563Z" fill="white"/>
<path d="M15.9329 10.9012C15.7314 10.9836 15.6359 11.2103 15.7155 11.406L16.0708 12.2457C16.1344 12.3951 16.2829 12.4827 16.4367 12.4827C16.4897 12.4827 16.5375 12.4724 16.5905 12.4518C16.792 12.3694 16.8875 12.1427 16.8079 11.947L16.4526 11.1073C16.3731 10.9115 16.1397 10.8188 15.9329 10.9012Z" fill="white"/>
<path d="M10.4579 3.75126C10.5375 3.82854 10.6382 3.8646 10.739 3.8646C10.8397 3.8646 10.9405 3.82854 11.02 3.75126C11.1738 3.60187 11.1738 3.3546 11.02 3.2052L10.3572 2.56126C10.2034 2.41187 9.94882 2.41187 9.79503 2.56126C9.64124 2.71066 9.64124 2.95793 9.79503 3.10733L10.4579 3.75126Z" fill="white"/>
<path d="M17.3966 9.94798C17.2428 10.0974 17.2428 10.3447 17.3966 10.494L18.0595 11.138C18.139 11.2153 18.2398 11.2513 18.3405 11.2513C18.4413 11.2513 18.542 11.2153 18.6216 11.138C18.7754 10.9886 18.7754 10.7413 18.6216 10.5919L17.9587 9.94798C17.8049 9.79859 17.5557 9.79859 17.3966 9.94798Z" fill="white"/>
<path d="M8.65718 5.03391L9.52157 5.38421C9.5693 5.40481 9.62233 5.41512 9.67536 5.41512C9.82914 5.41512 9.97763 5.32754 10.0413 5.17815C10.1261 4.98239 10.0307 4.75572 9.82384 4.6733L8.96475 4.323C8.76324 4.24057 8.5299 4.3333 8.44505 4.53421C8.36021 4.72997 8.45566 4.95663 8.65718 5.03391Z" fill="white"/>
<path d="M19.4526 9.38296C19.5003 9.40357 19.5533 9.41387 19.6064 9.41387C19.7601 9.41387 19.9086 9.3263 19.9723 9.1769C20.0571 8.98115 19.9617 8.75448 19.7548 8.67205L18.8905 8.3269C18.6889 8.24448 18.4556 8.33721 18.3708 8.53812C18.2859 8.73387 18.3814 8.96054 18.5882 9.04296L19.4526 9.38296Z" fill="white"/>
<path d="M8.36257 7.23757H9.2959C9.51333 7.23757 9.69363 7.06242 9.69363 6.85121C9.69363 6.64 9.51333 6.46484 9.2959 6.46484H8.36257C8.14515 6.46484 7.96484 6.64 7.96484 6.85121C7.96484 7.06242 8.14515 7.23757 8.36257 7.23757Z" fill="white"/>
<path d="M18.7148 6.85121C18.7148 7.06242 18.8951 7.23757 19.1126 7.23757H20.0459C20.2633 7.23757 20.4436 7.06242 20.4436 6.85121C20.4436 6.64 20.2633 6.46484 20.0459 6.46484H19.1126C18.8951 6.46484 18.7148 6.63484 18.7148 6.85121Z" fill="white"/>
<path d="M10.0397 8.52746C9.95481 8.3317 9.72148 8.23898 9.51996 8.31625L8.65557 8.6614C8.45405 8.74383 8.3586 8.97049 8.43814 9.16625C8.50178 9.31564 8.65026 9.40322 8.80405 9.40322C8.85708 9.40322 8.90481 9.39292 8.95784 9.37231L9.82223 9.02716C10.0291 8.94989 10.1245 8.72837 10.0397 8.52746Z" fill="white"/>
<path d="M18.3747 5.17265C18.4383 5.32204 18.5868 5.40962 18.7406 5.40962C18.7936 5.40962 18.8413 5.39931 18.8944 5.37871L19.7588 5.0284C19.9603 4.94598 20.0557 4.71931 19.9762 4.52356C19.8913 4.3278 19.658 4.23507 19.4565 4.31234L18.5921 4.66265C18.3853 4.75022 18.2898 4.97689 18.3747 5.17265Z" fill="white"/>
<path d="M10.0761 11.2513C10.1768 11.2513 10.2776 11.2153 10.3572 11.138L11.02 10.494C11.1738 10.3447 11.1738 10.0974 11.02 9.94798C10.8662 9.79859 10.6117 9.79859 10.4579 9.94798L9.79503 10.5919C9.64124 10.7413 9.64124 10.9886 9.79503 11.138C9.86927 11.2153 9.97533 11.2513 10.0761 11.2513Z" fill="white"/>
<path d="M17.6777 3.8646C17.7784 3.8646 17.8792 3.82854 17.9587 3.75126L18.6216 3.10733C18.7754 2.95793 18.7754 2.71066 18.6216 2.56126C18.4678 2.41187 18.2133 2.41187 18.0595 2.56126L17.3966 3.2052C17.2428 3.3546 17.2428 3.60187 17.3966 3.75126C17.4761 3.82854 17.5769 3.8646 17.6777 3.8646Z" fill="white"/>
<path d="M11.9604 11.1073L11.6051 11.947C11.5203 12.1427 11.6157 12.3694 11.8226 12.4518C11.8703 12.4724 11.9233 12.4827 11.9763 12.4827C12.1301 12.4827 12.2786 12.3951 12.3423 12.2457L12.6976 11.406C12.7824 11.2103 12.6869 10.9836 12.4801 10.9012C12.2786 10.8188 12.0453 10.9115 11.9604 11.1073Z" fill="white"/>
<path d="M15.9329 2.80504C15.9806 2.82564 16.0337 2.83595 16.0867 2.83595C16.2405 2.83595 16.389 2.74837 16.4526 2.59898L16.8079 1.75928C16.8928 1.56352 16.7973 1.33686 16.5905 1.25443C16.389 1.17716 16.1556 1.26473 16.0708 1.46564L15.7155 2.30534C15.6359 2.49595 15.7314 2.72261 15.9329 2.80504Z" fill="white"/>
</g>
<defs>
<clipPath id="clip0_343_9492">
<rect width="35" height="34" fill="white"/>
</clipPath>
</defs>
</svg>
