<svg width="34" height="34" viewBox="0 0 34 34" fill="none" xmlns="http://www.w3.org/2000/svg">
<g clip-path="url(#clip0_343_9518)">
<path fill-rule="evenodd" clip-rule="evenodd" d="M32.5051 21.0532H2.13018C1.31354 21.0532 0.65625 20.3959 0.65625 19.5793V18.9817C0.65625 18.1651 1.31354 17.5078 2.13018 17.5078H32.5051C33.3217 17.5078 33.999 18.1651 33.999 18.9817V19.5793C33.999 20.3959 33.3217 21.0532 32.5051 21.0532ZM2.13018 18.1651C1.69199 18.1651 1.31354 18.5435 1.31354 18.9817V19.5793C1.31354 20.0374 1.69199 20.3959 2.13018 20.3959H32.5051C32.9632 20.3959 33.3217 20.0374 33.3217 19.5793V18.9817C33.3217 18.5435 32.9632 18.1651 32.5051 18.1651H2.13018Z" fill="white"/>
<path fill-rule="evenodd" clip-rule="evenodd" d="M31.1894 32.5285H3.46361C3.26443 32.5285 3.125 32.3691 3.125 32.1899V20.737C3.125 20.5379 3.26443 20.3984 3.46361 20.3984H31.1894C31.3687 20.3984 31.528 20.5379 31.528 20.737V32.1899C31.528 32.3691 31.3687 32.5285 31.1894 32.5285ZM3.78229 31.8513H30.8508V21.0557H3.78229V31.8513Z" fill="white"/>
<path fill-rule="evenodd" clip-rule="evenodd" d="M3.20631 18.1667C3.10672 18.1667 3.00713 18.1269 2.94738 18.0671C2.36976 17.4098 2.03115 16.5932 2.03115 15.916C2.03115 15.3981 2.17058 14.8802 2.44943 14.4221C0.855992 13.6254 -0.0403178 12.2112 0.138944 10.7572C0.238534 10.0203 0.616976 9.34305 1.23443 8.80526C0.895828 8.50649 0.616976 8.16789 0.417796 7.76953C-0.617939 5.77773 0.358042 3.20831 2.58886 2.05306C3.68435 1.49536 4.87942 1.33602 5.99483 1.61487C7.13016 1.89372 8.02647 2.57093 8.52442 3.54691C8.58417 3.6465 8.64392 3.76601 8.68376 3.88552C8.7236 3.88552 8.76343 3.88552 8.80327 3.90544C10.4963 4.12453 11.9503 5.0806 12.5678 6.35535C13.3246 6.21592 14.1413 6.27568 14.9181 6.47486C16.4518 6.89313 17.6867 7.88903 18.2245 9.12395C18.2842 9.30321 18.2046 9.50239 18.0452 9.56214C17.866 9.64182 17.6867 9.56214 17.607 9.4028C17.1688 8.34715 16.0733 7.47076 14.7388 7.11223C13.962 6.91305 13.1653 6.89313 12.4483 7.05248C12.2889 7.09231 12.1097 6.99272 12.0499 6.8533C11.5918 5.65822 10.2971 4.76191 8.7236 4.56273C8.62401 4.54281 8.54433 4.54281 8.42483 4.52289C8.2854 4.52289 8.16589 4.4233 8.12606 4.3038C8.08622 4.14445 8.00655 3.98511 7.94679 3.84568C7.52852 3.04896 6.77163 2.49126 5.83549 2.25224C4.87942 2.01323 3.84369 2.15265 2.90754 2.63069C0.995417 3.62659 0.138944 5.79765 0.995417 7.45084C1.23443 7.88903 1.55312 8.24756 1.9714 8.54633C2.05107 8.60608 2.11082 8.70567 2.11082 8.82518C2.11082 8.92477 2.05107 9.02436 1.9714 9.08411C1.31411 9.54223 0.895828 10.1597 0.796238 10.8369C0.636894 12.0917 1.55312 13.3466 3.06689 13.964C3.16648 14.0039 3.22623 14.0835 3.26607 14.1831C3.28599 14.2827 3.26607 14.3823 3.20631 14.462C2.86771 14.9201 2.70836 15.418 2.70836 15.916C2.70836 16.4538 2.98722 17.0911 3.44533 17.6289C3.56484 17.7684 3.56484 17.9675 3.42541 18.087C3.34574 18.1468 3.28599 18.1667 3.20631 18.1667Z" fill="white"/>
<path fill-rule="evenodd" clip-rule="evenodd" d="M13.445 18.1677C13.3455 18.1677 13.2459 18.1279 13.1861 18.0482C12.4491 17.0523 12.0508 15.8772 12.0508 14.6422C12.0508 11.4952 14.6202 8.92578 17.7672 8.92578C20.2172 8.92578 22.4081 10.4993 23.1849 12.8297C23.2447 12.9891 23.1451 13.1882 22.9658 13.248C22.7866 13.3077 22.6073 13.2081 22.5476 13.0289C21.8504 10.9773 19.9383 9.60299 17.7672 9.60299C14.9787 9.60299 12.728 11.8537 12.728 14.6422C12.728 15.7377 13.0666 16.7735 13.704 17.6499C13.8235 17.7893 13.7836 18.0084 13.6442 18.108C13.5845 18.1478 13.5048 18.1677 13.445 18.1677Z" fill="white"/>
<path fill-rule="evenodd" clip-rule="evenodd" d="M18.4247 9.64198C18.2455 9.64198 18.1061 9.48263 18.0861 9.30337C18.0861 9.24362 18.0463 7.55059 19.102 6.6742C19.6597 6.19616 20.4165 6.03682 21.3328 6.21608C21.512 6.25592 21.6315 6.43518 21.5917 6.61444C21.5519 6.7937 21.3726 6.91321 21.1933 6.87338C20.4962 6.73395 19.9186 6.83354 19.5202 7.17215C18.7235 7.84936 18.7633 9.28345 18.7633 9.28345C18.7633 9.48263 18.6239 9.62206 18.4447 9.64198C18.4247 9.64198 18.4247 9.64198 18.4247 9.64198Z" fill="white"/>
<path fill-rule="evenodd" clip-rule="evenodd" d="M13.3841 18.087C13.2845 18.087 13.1849 18.0472 13.1251 17.9675L3.48483 5.63825C3.36532 5.49883 3.40515 5.29965 3.54458 5.18014C3.68401 5.06063 3.9031 5.10047 4.00269 5.23989L13.643 17.5492C13.7625 17.6886 13.7227 17.9077 13.5832 18.0073C13.5235 18.0671 13.4438 18.087 13.3841 18.087Z" fill="white"/>
<path fill-rule="evenodd" clip-rule="evenodd" d="M8.56335 11.9307H5.21713C5.03786 11.9307 4.89844 11.7714 4.89844 11.5921C4.89844 11.4129 5.03786 11.2734 5.21713 11.2734H8.56335C8.74261 11.2734 8.90195 11.4129 8.90195 11.5921C8.90195 11.7714 8.74261 11.9307 8.56335 11.9307Z" fill="white"/>
<path fill-rule="evenodd" clip-rule="evenodd" d="M7.42837 10.4784C7.38854 10.4784 7.3487 10.4784 7.30887 10.4584C7.14952 10.3987 7.04993 10.1995 7.1296 10.0402L8.02591 7.72968C8.08567 7.55041 8.28485 7.47074 8.44419 7.55041C8.62345 7.61017 8.70312 7.80935 8.64337 7.96869L7.74706 10.2792C7.68731 10.3987 7.5678 10.4784 7.42837 10.4784Z" fill="white"/>
<path fill-rule="evenodd" clip-rule="evenodd" d="M10.9352 14.978H7.56907C7.38981 14.978 7.23047 14.8186 7.23047 14.6394C7.23047 14.4601 7.38981 14.3008 7.56907 14.3008H10.9352C11.1344 14.3008 11.2738 14.4601 11.2738 14.6394C11.2738 14.8186 11.1344 14.978 10.9352 14.978Z" fill="white"/>
<path fill-rule="evenodd" clip-rule="evenodd" d="M10.297 14.1447C10.2572 14.1447 10.2173 14.1447 10.1974 14.1247C10.0181 14.065 9.91856 13.8857 9.97831 13.7065L10.8149 11.2167C10.8746 11.0574 11.0539 10.9578 11.2331 11.0175C11.4124 11.0773 11.512 11.2565 11.4522 11.4358L10.6157 13.9256C10.5559 14.065 10.4364 14.1447 10.297 14.1447Z" fill="white"/>
<path fill-rule="evenodd" clip-rule="evenodd" d="M30.6344 18.1659H23.2249C23.0456 18.1659 22.9062 18.0265 22.9062 17.8472C22.8863 16.8912 22.8066 14.501 22.5477 13.0669C22.4879 12.6885 22.468 12.31 22.4879 11.9117C22.6473 9.62109 24.42 7.76872 26.6309 7.62929C26.7305 7.60938 26.8301 7.60938 26.9296 7.60938C29.3796 7.60938 31.3913 9.68085 31.3913 12.2303C31.3913 12.4893 31.3714 12.7283 31.3315 12.9673C31.1323 14.2022 31.0128 16.3534 30.973 17.8472C30.9531 18.0265 30.8137 18.1659 30.6344 18.1659ZM23.5436 17.5086H30.3157C30.3555 16.0546 30.495 14.0827 30.6742 12.8677C30.6941 12.6486 30.7141 12.4494 30.7141 12.2303C30.7141 10.0593 29.021 8.28659 26.9296 8.28659C26.85 8.28659 26.7504 8.28659 26.6707 8.28659C24.7984 8.42601 23.2847 9.99953 23.1452 11.9515C23.1253 12.2901 23.1452 12.6287 23.205 12.9474C23.444 14.2819 23.5237 16.3932 23.5436 17.5086Z" fill="white"/>
<path fill-rule="evenodd" clip-rule="evenodd" d="M26.6511 8.28913C26.4718 8.28913 26.3125 8.14971 26.3125 7.95053V2.97103C26.3125 2.79177 26.4718 2.65234 26.6511 2.65234C26.8304 2.65234 26.9897 2.79177 26.9897 2.97103V7.95053C26.9897 8.14971 26.8304 8.28913 26.6511 8.28913Z" fill="white"/>
<path fill-rule="evenodd" clip-rule="evenodd" d="M28.6425 3.30964H24.4597C24.2804 3.30964 24.1211 3.17021 24.1211 2.97103C24.1211 2.79177 24.2804 2.65234 24.4597 2.65234H28.6425C28.8217 2.65234 28.9811 2.79177 28.9811 2.97103C28.9811 3.17021 28.8217 3.30964 28.6425 3.30964Z" fill="white"/>
<path fill-rule="evenodd" clip-rule="evenodd" d="M26.6483 6.77521C26.5885 6.77521 26.5288 6.75529 26.469 6.73537L22.6448 4.40497C22.4854 4.3253 22.4257 4.1062 22.5253 3.94685C22.6248 3.80743 22.824 3.74767 22.9834 3.84726L26.6284 6.05816L29.9347 3.84726C30.0941 3.74767 30.2933 3.78751 30.3929 3.94685C30.4924 4.08628 30.4526 4.30538 30.3132 4.40497L26.8275 6.71545C26.7678 6.75529 26.708 6.77521 26.6483 6.77521Z" fill="white"/>
<path fill-rule="evenodd" clip-rule="evenodd" d="M8.28415 30.5941H5.45579C5.27653 30.5941 5.11719 30.4347 5.11719 30.2555V22.6468C5.11719 22.4676 5.27653 22.3281 5.45579 22.3281H8.28415C8.46341 22.3281 8.62275 22.4676 8.62275 22.6468V30.2555C8.62275 30.4347 8.46341 30.5941 8.28415 30.5941ZM5.77448 29.9368H7.94554V22.9854H5.77448V29.9368Z" fill="white"/>
<path fill-rule="evenodd" clip-rule="evenodd" d="M13.5224 30.5941H10.6742C10.4949 30.5941 10.3555 30.4347 10.3555 30.2555V22.6468C10.3555 22.4676 10.4949 22.3281 10.6742 22.3281H13.5224C13.7017 22.3281 13.8411 22.4676 13.8411 22.6468V30.2555C13.8411 30.4347 13.7017 30.5941 13.5224 30.5941ZM11.0128 29.9368H13.1838V22.9854H11.0128V29.9368Z" fill="white"/>
<path fill-rule="evenodd" clip-rule="evenodd" d="M18.7412 30.5941H15.9128C15.7136 30.5941 15.5742 30.4347 15.5742 30.2555V22.6468C15.5742 22.4676 15.7136 22.3281 15.9128 22.3281H18.7412C18.9204 22.3281 19.0798 22.4676 19.0798 22.6468V30.2555C19.0798 30.4347 18.9204 30.5941 18.7412 30.5941ZM16.2315 29.9368H18.4026V22.9854H16.2315V29.9368Z" fill="white"/>
<path fill-rule="evenodd" clip-rule="evenodd" d="M23.9795 30.5941H21.1312C20.9519 30.5941 20.8125 30.4347 20.8125 30.2555V22.6468C20.8125 22.4676 20.9519 22.3281 21.1312 22.3281H23.9795C24.1587 22.3281 24.2981 22.4676 24.2981 22.6468V30.2555C24.2981 30.4347 24.1587 30.5941 23.9795 30.5941ZM21.4698 29.9368H23.6409V22.9854H21.4698V29.9368Z" fill="white"/>
<path fill-rule="evenodd" clip-rule="evenodd" d="M29.1982 30.5941H26.3699C26.1707 30.5941 26.0312 30.4347 26.0312 30.2555V22.6468C26.0312 22.4676 26.1707 22.3281 26.3699 22.3281H29.1982C29.3775 22.3281 29.5368 22.4676 29.5368 22.6468V30.2555C29.5368 30.4347 29.3775 30.5941 29.1982 30.5941ZM26.6885 29.9368H28.8596V22.9854H26.6885V29.9368Z" fill="white"/>
</g>
<defs>
<clipPath id="clip0_343_9518">
<rect width="34" height="34" fill="white"/>
</clipPath>
</defs>
</svg>
