<svg width="128" height="109" viewBox="0 0 128 109" fill="none" xmlns="http://www.w3.org/2000/svg">
<path d="M40.5697 8.88791C39.9562 9.28905 37.7771 10.684 32.6224 13.9752C29.1157 16.2089 28.2917 16.7285 28.1635 16.7741C28.0445 16.8197 28.0261 16.2909 28.0078 12.8356L27.9804 8.83321L26.7718 8.80585L25.5541 8.7785L25.5358 13.6287L25.5083 18.479L25.0963 18.7707C24.8674 18.9257 23.906 19.5457 22.9538 20.1383C22.0108 20.74 21.205 21.287 21.1776 21.36C21.1501 21.442 21.3241 21.6791 21.6445 21.9708L22.1664 22.454V26.9304C22.1664 29.3829 22.1481 31.3978 22.1298 31.3978C22.0382 31.3978 20.793 30.6502 20.7381 30.559C20.6191 30.3675 20.8663 30.2855 21.141 30.4314C21.4889 30.6137 21.7452 30.6137 21.8826 30.4496C22.0749 30.2217 21.7636 29.9026 20.6557 29.1641C19.5295 28.4074 19.1999 28.1339 19.6486 28.298C19.9599 28.4165 20.1247 28.298 20.1704 27.9515C20.1979 27.7327 20.2437 27.6963 20.6099 27.6598C20.8937 27.6325 21.0219 27.5686 21.0219 27.4775C21.0219 27.3407 20.9395 27.2951 19.7493 26.7207C19.1084 26.4108 18.8886 26.2011 19.2182 26.2011C19.438 26.2011 19.6394 25.9732 19.557 25.8364C19.5204 25.7817 19.2823 25.6449 19.026 25.5264C18.028 25.0797 17.442 24.3412 16.9476 22.8916C16.8102 22.4813 16.6546 22.1349 16.5997 22.1167C16.5447 22.0984 16.4806 22.2625 16.4532 22.4813C16.4349 22.7002 16.3708 23.2381 16.3158 23.6939C16.1876 24.7332 15.9221 25.2803 15.208 25.964C14.8967 26.2558 14.6678 26.5475 14.6861 26.6022C14.7044 26.6569 14.8784 26.7207 15.0706 26.7481L15.4094 26.7937L14.9241 27.2495C14.6495 27.5048 14.2741 27.8239 14.091 27.9698C13.8987 28.1157 13.743 28.298 13.743 28.3892C13.743 28.5259 13.8437 28.5441 14.4847 28.5441C15.0249 28.5441 15.2629 28.5806 15.3636 28.69C15.4918 28.8177 15.4643 28.8815 15.1073 29.3191C14.8875 29.5835 14.503 30.0211 14.2649 30.2946C13.7613 30.8507 13.5233 31.2701 13.5965 31.4525C13.6789 31.6622 14.1276 31.5983 14.3931 31.3431C14.6403 31.106 14.8417 31.106 14.8417 31.3431C14.8417 31.4069 14.2649 32.0268 13.5508 32.7106C12.3697 33.8594 12.2689 33.9779 12.2964 34.2514C12.3239 34.5158 12.3513 34.5431 12.6443 34.5431C12.8183 34.534 13.0563 34.5067 13.1754 34.4611C13.3493 34.4064 13.3768 34.4246 13.3768 34.6252C13.3768 35.0537 13.9902 34.8987 14.2466 34.4064C14.3565 34.2058 14.4572 34.1329 14.6403 34.1329C14.9424 34.1329 15.2995 34.4246 15.2995 34.6708C15.2995 35.0901 16.2151 34.926 16.5173 34.4611C16.7187 34.1693 16.7736 34.1693 17.1124 34.452C17.4328 34.7164 17.6343 35.3545 17.5519 35.8104C17.4969 36.1113 17.4695 36.1295 16.9659 36.2207C15.565 36.4851 12.8091 37.2144 12.6535 37.3603C12.5436 37.4697 12.5619 37.7158 12.7267 39.0378C12.8458 39.8857 12.919 40.7153 12.9007 40.8794C12.8732 41.153 12.8366 41.1894 12.3513 41.3353C12.0584 41.4265 11.683 41.5814 11.4999 41.6909C11.3167 41.7911 11.0878 41.8823 10.9871 41.8823C10.8223 41.8823 10.1082 42.1467 8.88128 42.6664C6.97687 43.4687 3.58005 45.2374 3.58005 45.4288C3.58005 45.4926 4.37661 46.3588 5.34713 47.3434C6.90362 48.9297 8.80803 51.0449 9.56797 52.0295C9.82433 52.3669 9.83349 52.3851 9.73277 52.9412C8.90875 57.7276 8.80803 58.3658 8.43264 61.3471C8.2129 63.0884 8.2129 63.3072 8.36855 63.3072C8.4418 63.3072 9.21089 62.9426 10.0899 62.5049C12.6993 61.1921 14.8784 60.326 17.268 59.6604C18.2477 59.3869 18.7055 59.2137 18.8978 59.0496C18.9802 58.9676 19.4471 58.2108 19.9324 57.363C20.4176 56.5151 20.8388 55.8404 20.8571 55.8587C20.8754 55.886 21.0494 56.506 21.2508 57.2536C22.8806 63.4896 26.2865 68.8686 31.1666 72.953C37.9145 78.5873 46.7224 81.0033 55.4937 79.6175C58.5334 79.1343 61.6647 78.1132 64.6037 76.6181C66.0961 75.8705 67.4878 75.0135 67.4878 74.8585C67.4878 74.8038 67.5153 74.7855 67.5428 74.822C67.6526 74.9223 68.9894 73.9468 70.4177 72.7342C73.4025 70.1906 76.131 66.6805 78.0171 62.9334C78.8319 61.338 79.6102 59.1864 80.1321 57.1259C80.3335 56.3145 80.4617 55.9589 80.5074 56.0592C80.6265 56.2689 81.4963 58.8308 81.4963 58.9767C81.4963 59.2593 81.9541 59.6422 82.4393 59.7607C84.0874 60.1528 86.7243 61.183 89.1872 62.4138C90.2676 62.9517 91.1832 63.3619 91.2198 63.3255C91.3754 63.1705 90.5148 57.0256 89.8647 53.6159C89.6541 52.5127 89.6358 52.3395 89.7548 52.2027C89.8281 52.1207 90.2309 51.6375 90.6521 51.1361C91.6867 49.9053 92.9136 48.5742 94.4426 47.0152C95.1385 46.2949 95.6695 45.7114 95.6054 45.7114C95.5505 45.7114 95.2392 45.4653 94.9187 45.1735C94.5983 44.8727 94.1497 44.5445 93.9391 44.4259C93.7193 44.3165 93.3439 44.0886 93.1059 43.9245C92.877 43.7513 92.2727 43.4231 91.7783 43.1952C91.2839 42.9672 90.762 42.7302 90.6063 42.6573C90.057 42.402 89.1139 42.0373 87.8687 41.6088C87.1729 41.3626 86.5869 41.1438 86.5595 41.1165C86.4954 41.0527 86.8799 38.1079 86.9898 37.8161C87.1088 37.5153 86.9715 37.2509 86.6419 37.1779C85.6439 36.9409 83.5747 36.4121 83.538 36.3756C83.4465 36.2845 84.0782 35.6098 84.4536 35.4001C84.948 35.1266 84.9846 35.1175 85.827 35.0719C86.5228 35.0354 86.6419 34.9716 86.4221 34.7984C86.2573 34.6708 85.4424 34.5067 85.1128 34.534C84.7008 34.5705 84.3437 34.689 84.2613 34.8075C84.2247 34.8622 84.0324 35.0354 83.8219 35.1996L83.4465 35.4913L83.3824 34.7346C83.245 32.9477 82.4851 31.6713 81.2765 31.2154C80.8645 31.0604 80.9011 31.1698 81.3406 31.4251C82.2745 31.9721 82.7781 32.893 82.8513 34.1876C82.8971 35.1084 82.833 35.7648 82.6591 35.9836C82.5583 36.1204 82.476 36.1204 81.7801 35.9927C80.6082 35.7922 80.6082 35.7922 80.2053 34.6434C79.7933 33.4856 79.7567 32.9659 80.0405 32.2183C80.1412 31.9448 80.2602 31.6713 80.2969 31.6257C80.4067 31.4798 80.9286 30.0302 81.0751 29.4558C81.2948 28.5715 81.3681 28.5077 82.183 28.4986C83.0436 28.4894 83.9226 28.2706 84.7008 27.8877C85.1311 27.678 85.4699 27.5777 85.9185 27.5504C86.4862 27.5048 86.5595 27.5139 86.8982 27.7601C87.3377 28.0792 88.3815 28.3253 88.9308 28.2433C89.4161 28.1612 90.0845 27.6963 90.295 27.2951C90.7162 26.4837 90.9451 25.8182 91.0367 25.1344C91.1832 24.1133 91.0092 23.5025 90.3042 22.4722C89.8006 21.7338 89.7823 21.6882 89.7823 21.1047C89.7823 20.7765 89.8281 20.2659 89.883 19.9742C90.1669 18.4972 89.4069 17.1023 87.8871 16.3091C87.5208 16.1177 86.9623 15.7804 86.6419 15.5707C86.1749 15.2607 85.9185 15.1604 85.2776 15.0419C84.5085 14.896 84.4719 14.8869 83.9134 14.349C83.593 14.039 83.1169 13.6926 82.8239 13.5649C82.3844 13.3644 82.2104 13.3279 81.6061 13.3644C80.6539 13.4099 80.1595 13.6561 79.3447 14.4949C78.6946 15.1786 78.1727 15.4795 77.486 15.5889C77.2205 15.6254 77.0099 15.5707 76.4789 15.3154C75.1238 14.6772 74.0526 14.814 72.9539 15.7804C72.7616 15.9445 72.6151 16.1086 72.6151 16.1542C72.6151 16.1997 72.5602 16.2909 72.4869 16.3456C72.4137 16.4094 72.2489 16.7285 72.1115 17.0659C71.9742 17.4032 71.6629 17.9411 71.4249 18.2693C70.8572 19.0351 70.7107 19.418 70.5917 20.4118C70.3994 22.1076 70.3994 22.2625 70.5459 22.5634C70.6283 22.7275 70.6832 22.8643 70.6741 22.8825C70.6558 22.8916 68.5224 22.4813 65.9222 21.9708L61.1886 21.0409L60.2913 20.4574C59.7878 20.1474 59.1835 19.7554 58.9271 19.5913C58.6799 19.4272 56.922 18.3149 55.0359 17.1114C51.6665 14.9598 50.6411 14.3125 47.0703 12.0424C46.0906 11.4224 44.5708 10.4469 43.6918 9.89078C42.0254 8.82409 41.3571 8.41383 41.293 8.43206C41.2747 8.43206 40.945 8.64175 40.5697 8.88791ZM44.2869 10.7295C46.7865 12.3159 52.5913 16.0174 55.2465 17.7132C55.686 17.9958 56.3452 18.4152 56.7114 18.6431C57.0685 18.871 58.1855 19.5821 59.1835 20.2203C60.8956 21.3053 61.0513 21.3873 61.8387 21.5696C62.3056 21.6699 62.8092 21.7793 62.9557 21.7976C63.1113 21.8158 63.4959 21.8887 63.8255 21.9617C64.1551 22.0346 65.8398 22.3628 67.5794 22.7002C70.9304 23.3383 71.6995 23.5207 71.6995 23.6848C71.6995 23.8762 71.5622 24.0039 71.3791 23.9857C71.196 23.9674 71.196 24.0404 71.1685 28.9088C71.1593 32.3095 71.1227 33.8594 71.0495 33.8594C70.9945 33.8594 70.8755 33.8138 70.7748 33.7682C70.61 33.677 70.6008 33.522 70.6008 28.7538V23.8307L70.3994 23.7851C70.1247 23.7213 64.8418 22.6728 62.5711 22.2352L60.8224 21.8979L57.1234 19.5366C55.1 18.2419 53.1681 17.0203 52.8385 16.8106C52.5089 16.61 51.5017 15.9627 50.5953 15.3792C49.6889 14.8048 48.7092 14.1758 48.4162 13.9934C47.9218 13.6834 45.9258 12.4162 44.5982 11.5683C44.2686 11.3586 43.408 10.8116 42.6847 10.3466L41.3754 9.50787L41.0824 9.68109C40.9267 9.78138 39.9287 10.4104 38.8758 11.0851C37.8137 11.7598 36.8432 12.3706 36.715 12.4435C36.5869 12.5165 36.1749 12.7718 35.7995 13.0179C34.9571 13.574 33.3365 14.6225 32.3935 15.2151C31.4962 15.7895 29.9306 16.7923 27.4768 18.3605C24.8857 20.0198 24.611 20.193 23.787 20.7035L23.082 21.1412L23.1003 26.5019C23.1186 29.4467 23.1003 31.8536 23.0637 31.8536C23.0271 31.8536 22.8897 31.808 22.7615 31.7442L22.5326 31.6439V26.6387V21.6244L22.258 21.6882C21.9924 21.7429 21.7086 21.6244 21.7086 21.4602C21.7086 21.4238 21.965 21.2232 22.2763 21.0226C22.5967 20.8312 23.3933 20.3206 24.0434 19.9104C25.1054 19.2266 25.5907 18.9166 27.2479 17.859C27.7149 17.5582 33.6845 13.7473 34.8473 13.0088C35.2043 12.7809 36.7883 11.7689 38.3723 10.7478C39.9562 9.72668 41.2838 8.88791 41.3113 8.88791C41.3387 8.87879 42.6847 9.70844 44.2869 10.7295ZM27.6416 10.5199C27.6782 12.2156 27.6691 12.2338 27.1747 12.2703C26.8634 12.2886 26.7901 12.3341 26.7901 12.48C26.7901 12.635 26.8634 12.6623 27.2296 12.6897C27.6508 12.717 27.6599 12.7262 27.6416 12.9906C27.6324 13.1455 27.5867 13.2914 27.55 13.3097C27.4127 13.4008 27.1289 13.2458 27.0831 13.0635C27.0373 12.9085 26.9732 12.8812 26.6802 12.9085C26.4056 12.9267 26.3323 12.9723 26.3323 13.1182C26.3323 13.2458 26.4056 13.3097 26.5887 13.3279C26.7626 13.3461 26.8359 13.4099 26.8359 13.5285C26.8359 13.6652 26.9183 13.7017 27.2296 13.729L27.6141 13.7564L27.6416 15.3519C27.6508 16.2271 27.6416 17.0294 27.6233 17.1388C27.5775 17.3211 26.2224 18.2693 26.0119 18.2693C25.9478 18.2693 25.9295 17.157 25.9386 14.8687C25.9661 11.4863 25.9661 11.4771 26.1584 11.4498C26.3049 11.4315 26.3689 11.4863 26.4147 11.6412C26.4605 11.8327 26.5246 11.8692 26.8359 11.8692C27.1655 11.8783 27.2021 11.8509 27.2021 11.6504C27.2021 11.468 27.1563 11.4315 26.9274 11.4315C26.7169 11.4315 26.6528 11.3951 26.6528 11.2492C26.6528 11.0942 26.5887 11.0669 26.2865 11.0669H25.9203V10.1096V9.14319L26.7718 9.17054L27.6141 9.19789L27.6416 10.5199ZM42.0529 11.8601C42.1719 11.9603 42.2177 12.1427 42.2177 12.4435C42.2177 12.8173 42.1811 12.8994 41.9705 13.0544C41.5768 13.3188 41.3937 13.3644 41.0641 13.255C40.826 13.1729 40.7345 13.0635 40.6154 12.7535C40.4689 12.3888 40.4689 12.3433 40.6154 12.0333C40.7253 11.8145 40.8535 11.6868 41.0183 11.6504C41.1465 11.623 41.3021 11.5865 41.3479 11.5774C41.4852 11.541 41.8698 11.6959 42.0529 11.8601ZM41.3387 15.6983C42.1719 15.753 42.2085 15.7257 42.2452 14.9142L42.2726 14.2122L42.291 14.9598L42.3093 15.7074L42.7487 15.7348L43.1791 15.7621L43.2065 18.9075C43.2157 20.6397 43.2065 22.144 43.1791 22.2625L43.1333 22.4631L41.3662 22.4449L39.6083 22.4175V19.0898V15.7621L40.1851 15.7348L40.7528 15.7074L40.7711 14.5496L40.7894 13.3917L40.8443 14.5313L40.8901 15.671L41.3387 15.6983ZM39.4252 22.4084C39.3885 23.5389 39.3885 24.4689 39.4343 24.4962C39.4801 24.5144 39.8189 24.5144 40.1851 24.478C40.5513 24.4415 40.881 24.4506 40.9084 24.4962C40.9267 24.5327 41.2289 24.5418 41.5585 24.5144C41.8973 24.4871 42.2177 24.4597 42.2635 24.4689C43.7834 24.6421 43.6826 24.7697 43.701 22.7549L43.7284 21.05L43.7467 22.7549C43.7742 23.9948 43.8108 24.4597 43.8932 24.4871C43.9482 24.5053 44.2595 24.5053 44.5799 24.4871L45.1476 24.4506L45.1659 22.6181L45.1842 20.7765L45.2391 22.6455L45.2849 24.5144L45.88 24.478C46.4935 24.4506 46.64 24.3594 46.5759 24.0768C46.5576 23.9948 46.5759 23.9218 46.6125 23.9218C46.6583 23.9218 46.7041 24.0586 46.7224 24.2136L46.7498 24.5144L47.2992 24.5236C47.6013 24.5327 47.8852 24.5144 47.931 24.4871C48.0042 24.4415 48.7092 24.4506 49.2219 24.4962C49.3959 24.5144 49.405 24.4415 49.4508 23.1925L49.5058 21.8705L49.5241 23.156L49.5424 24.4415L49.8262 24.5053C50.2199 24.5783 50.6594 24.5691 50.7967 24.4871C50.87 24.4415 50.9158 24.0586 50.9432 23.3292L50.9707 22.2352L50.989 23.3475L51.0073 24.4506L51.5841 24.4871C51.8954 24.5053 52.2067 24.5053 52.2708 24.4871C52.3532 24.4597 52.3899 24.0677 52.399 23.0192L52.4173 21.597L52.4448 23.0284C52.4723 24.0495 52.5089 24.4597 52.5913 24.4871C52.6462 24.5053 52.9575 24.5053 53.278 24.4871L53.8456 24.4506L53.8639 23.1651L53.8823 21.8705L53.9097 23.1651C53.928 23.9218 53.983 24.478 54.0287 24.478C54.0837 24.4871 54.1661 24.5053 54.2119 24.5144C54.2668 24.5236 54.3492 24.5418 54.395 24.5509C54.4499 24.5509 54.4865 24.6603 54.4865 24.7788C54.4865 24.9429 54.4224 25.0068 54.2119 25.0523L53.928 25.107L53.9555 25.9002L53.983 26.7025L54.6697 26.7207C55.045 26.7207 55.4113 26.739 55.4754 26.739C55.6127 26.7481 55.6402 31.6257 55.4937 31.7169C55.4479 31.7442 55.4021 31.8718 55.4021 31.9995C55.4021 32.1271 55.3655 32.2092 55.3197 32.1818C55.2739 32.1545 55.2556 32.0451 55.2831 31.9448C55.3289 31.7716 55.2831 31.7624 54.633 31.7624C53.9738 31.7624 53.9372 31.7716 53.928 31.963L53.9097 32.1727L53.8731 31.963C53.8365 31.7807 53.7815 31.7624 53.1498 31.7624C52.573 31.7624 52.4723 31.7898 52.4539 31.9174C52.4356 32.0086 52.4082 30.5043 52.3807 28.5715L52.3349 25.0615H51.694H51.0531L51.0073 28.6171L50.9615 32.1727L50.9158 28.6171L50.87 25.0615L50.4213 25.0341C50.1741 25.0159 49.872 25.025 49.753 25.0615L49.5424 25.107L49.5241 28.6444L49.4966 32.1727L49.4783 28.6444L49.4508 25.1253L48.7733 25.0615C47.6013 24.9521 47.7112 24.56 47.7112 28.6718C47.7112 31.8627 47.6929 32.2274 47.5647 32.2001C47.4365 32.1727 47.4274 31.8263 47.4274 29.0547C47.4365 27.286 47.3999 25.9185 47.3541 25.8911C47.2626 25.8364 46.9879 26.2102 45.6695 28.1339C45.23 28.7721 44.8729 29.3556 44.8729 29.4376C44.8729 29.5197 45.2666 30.1579 45.7427 30.8507C46.2188 31.5436 46.6125 32.1362 46.6125 32.1636C46.6125 32.1909 46.5393 32.2183 46.4385 32.2183C46.3195 32.2183 46.0265 31.8627 45.5047 31.0787C44.937 30.249 44.6898 29.9482 44.5708 29.9664C44.47 29.9755 44.0763 30.4496 43.6094 31.1151C42.8403 32.2092 42.5656 32.51 42.4374 32.3824C42.41 32.3459 42.822 31.6895 43.353 30.9054C43.8841 30.1305 44.3236 29.465 44.3236 29.4376C44.3236 29.3191 41.9247 25.9276 41.8423 25.9276C41.7965 25.9276 41.7508 27.3042 41.7416 29.1823L41.7141 32.4462L41.3754 32.4736L41.0274 32.5009V29.1641C41.0274 26.9943 41 25.8364 40.9359 25.8546C40.8077 25.8911 38.4638 29.2917 38.4638 29.4285C38.4638 29.4923 38.8941 30.1761 39.4252 30.9419C39.9562 31.7169 40.3865 32.3824 40.3865 32.428C40.3865 32.5739 39.9745 32.4462 39.883 32.2639C39.5808 31.6804 38.3082 29.939 38.18 29.939C38.061 29.939 37.2919 30.9784 36.2756 32.5192C36.0741 32.8109 36.0284 32.8474 35.9185 32.7288C35.7995 32.6194 35.9185 32.4006 36.8158 31.1243C37.3743 30.3128 37.8595 29.5926 37.887 29.5197C37.9145 29.4558 37.4475 28.69 36.8615 27.8239C35.7171 26.1464 35.5523 25.9276 35.4241 25.9276C35.3874 25.9276 35.3508 27.4866 35.3508 29.392V32.8565L35.1494 32.9385C35.0304 32.975 34.7649 33.0388 34.5543 33.0753C34.1972 33.13 34.1606 33.1118 34.1606 32.9477C34.1606 32.7927 34.0965 32.7653 33.7486 32.7653C33.4006 32.7653 33.3365 32.7927 33.3365 32.9477C33.3365 33.0662 33.2724 33.13 33.1534 33.13C33.0436 33.13 32.8696 33.1938 32.7506 33.2668C32.6041 33.367 32.3111 33.4126 31.8624 33.4126C31.4871 33.4126 31.0659 33.4673 30.9102 33.5403C30.5989 33.677 29.134 33.9323 28.2184 34.0052C27.8888 34.0326 27.55 34.0873 27.4768 34.1329C27.4036 34.1693 26.9915 34.2514 26.5612 34.3061C26.1309 34.3699 25.6914 34.4246 25.5815 34.4428C25.4625 34.4611 25.3069 34.3973 25.2245 34.3061C25.1329 34.2058 24.9498 34.1329 24.8033 34.1329C24.5836 34.1329 24.5469 34.1693 24.5469 34.4064V34.6708L23.9518 34.6161C23.5398 34.5796 23.3567 34.5978 23.3567 34.6617C23.3567 34.7802 23.1461 34.8987 22.789 34.9899C22.5601 35.0446 22.5326 35.0263 22.5326 34.8166C22.5326 34.6069 22.5693 34.5887 22.8989 34.5887C23.2285 34.5887 23.2651 34.5614 23.2651 34.3608C23.2651 34.1511 23.2285 34.1329 22.8989 34.1329C22.551 34.1329 22.5326 34.1146 22.5326 33.8594C22.5326 33.6314 22.5693 33.5858 22.7615 33.5858C22.9447 33.5858 22.9904 33.5403 22.9904 33.3579C22.9904 33.2029 23.0362 33.13 23.1552 33.1391C23.2468 33.1391 23.2651 33.1665 23.201 33.1938C23.1369 33.212 23.082 33.2759 23.082 33.3215C23.082 33.4491 23.375 33.4217 23.5306 33.2668C23.9701 32.8747 24.0525 32.8109 24.1807 32.8109C24.2539 32.8109 24.318 32.7471 24.318 32.6741C24.318 32.6012 24.2448 32.5374 24.1624 32.5374C24.08 32.5374 23.9793 32.5009 23.9426 32.4645C23.906 32.428 24.0708 32.4006 24.2997 32.4006H24.73L24.7484 30.322L24.7758 28.2524L24.7941 30.322L24.8216 32.4006H25.5083H26.195L26.2133 30.094L26.2408 27.7966L26.2591 30.1032L26.2865 32.4098L26.9549 32.3824L27.6141 32.3551L27.6416 32.0633C27.6691 31.8263 27.6324 31.7716 27.4585 31.7442L27.2479 31.7169L27.2204 29.237L27.2021 26.7572L27.4036 26.7299C27.605 26.7025 27.6141 26.6569 27.6599 25.7452L27.6965 24.7879L27.7515 25.7452L27.7973 26.7025L28.4199 26.7299C29.0058 26.7572 29.0516 26.739 29.0974 26.5566L29.1523 26.347L29.2256 26.5475C29.2897 26.7207 29.3721 26.7481 29.8573 26.7481C30.3151 26.7481 30.4067 26.7755 30.4158 26.9031C30.4158 27.0398 30.4341 27.0307 30.4982 26.8757C30.5349 26.7755 30.5806 26.3287 30.5806 25.8911L30.5898 25.0979H29.8299C28.6762 25.107 28.3924 25.0432 28.3924 24.7788C28.3924 24.5965 28.4473 24.5509 28.7586 24.5053L29.1249 24.4415L29.1432 23.703L29.1615 22.9646L29.1889 23.7213L29.2256 24.478L29.8848 24.4506L30.544 24.4233L30.5989 24.0586L30.6539 23.6939L30.6722 24.0768C30.6722 24.2956 30.7088 24.4689 30.7546 24.478C30.8645 24.4871 31.9082 24.478 32.0547 24.4597C32.128 24.4597 32.4484 24.478 32.7597 24.5236C33.3091 24.5783 33.3365 24.5783 33.4189 24.3686C33.4739 24.2227 33.5105 24.2045 33.5105 24.2956C33.5197 24.4962 33.6387 24.5236 34.2979 24.5236L34.8473 24.5144L34.9022 24.013L34.9571 23.5116L34.9663 23.9857C34.9846 24.405 35.0121 24.4689 35.1952 24.5144C35.36 24.5509 36.0009 24.5327 36.2939 24.478C36.3305 24.478 36.3671 23.8215 36.3763 23.0284L36.3946 21.597L36.4221 23.0284L36.4495 24.4506L36.9348 24.4871C37.8595 24.5509 37.8229 24.6056 37.8412 23.2928L37.8595 22.144L37.887 23.2928C37.9236 24.6056 37.887 24.56 38.7843 24.5327L39.2421 24.5144L39.2695 22.4358C39.2878 21.0135 39.3245 20.3662 39.3885 20.3662C39.4618 20.3662 39.471 20.9497 39.4252 22.4084ZM34.9571 23.393C34.9297 23.466 34.9022 23.4386 34.9022 23.3383C34.893 23.2381 34.9205 23.1834 34.948 23.2198C34.9754 23.2472 34.9846 23.3292 34.9571 23.393ZM74.8858 23.4386C75.3527 23.6574 75.4992 23.9218 75.6274 24.7515C75.8746 26.429 76.5613 28.0974 77.5593 29.4832C78.2276 30.4131 78.2185 30.3949 78.0262 31.0149C77.5043 32.6468 76.1676 34.5887 75.5724 34.5887C74.9498 34.5796 74.8766 34.3881 75.1696 33.44C75.4259 32.6012 76.0119 31.6622 76.662 31.0878C76.9733 30.8052 77.193 30.5499 77.1656 30.5134C76.9641 30.3128 75.6365 31.5345 75.1787 32.3277C75.0231 32.6194 74.8766 32.8565 74.8674 32.8565C74.8583 32.8565 74.8491 32.3915 74.8491 31.8263C74.8583 30.9966 74.8217 30.6866 74.6477 30.1579C74.4371 29.5379 73.9244 28.7356 73.6039 28.535C73.311 28.3527 73.3384 28.5533 73.6497 28.9726C74.1075 29.5653 74.3639 30.3037 74.4188 31.2337C74.4921 32.2821 74.3913 32.5283 74.1716 31.8354C73.9702 31.179 73.6406 30.6228 73.2285 30.2217C72.7891 29.8023 72.6334 29.939 73.0088 30.4222C73.5124 31.0878 73.8145 31.8718 73.9244 32.8474C74.0434 33.9049 73.9793 34.224 73.668 34.224C73.549 34.224 73.4208 34.1876 73.3934 34.1329C73.3659 34.0873 73.1645 34.0508 72.9539 34.0599C72.4778 34.0782 71.7819 33.9596 71.6354 33.8411C71.5439 33.7682 71.5164 32.7106 71.5164 29.1185V24.4962L71.727 24.405C71.8643 24.3412 71.9834 24.168 72.0474 23.931C72.139 23.6392 72.2122 23.5572 72.3679 23.5572C72.4778 23.5572 72.7341 23.4933 72.9356 23.4295C73.43 23.2563 74.5012 23.2654 74.8858 23.4386ZM65.1531 23.9583C66.1602 24.0221 66.8561 24.1042 67.0758 24.1953C67.5336 24.3777 68.321 24.56 68.4034 24.5144C68.4584 24.4871 68.495 24.4962 68.495 24.5509C68.495 24.5965 68.6964 24.7606 68.9436 24.9065C69.1908 25.0615 69.493 25.3259 69.6303 25.49L69.8684 25.7999L69.9233 29.7385C69.9874 33.5767 69.9874 33.677 69.8134 33.677C69.4106 33.6679 69.4106 33.7044 69.4014 29.8935C69.3923 27.8877 69.3648 26.1464 69.3282 26.0187C69.2366 25.6814 68.5865 25.2438 67.7625 24.9703C65.0524 24.0677 60.5202 24.4324 59.2384 25.6541L58.8722 26.0005L58.8997 29.2006L58.9271 32.4006H58.5609H58.1947L58.2221 29.1915L58.2496 25.9823L58.57 25.5902C58.8539 25.2529 59.2293 24.9429 59.742 24.633C59.7969 24.6056 60.1082 24.5053 60.4378 24.4142C60.7674 24.323 61.0787 24.2227 61.1337 24.1771C61.1886 24.1406 61.2527 24.1224 61.2802 24.1498C61.2985 24.168 61.564 24.1498 61.8661 24.0951C62.1591 24.0495 62.7543 23.9765 63.1846 23.9492C63.6149 23.9218 63.9811 23.8854 63.9995 23.8671C64.0178 23.8489 64.1185 23.8489 64.2284 23.8762C64.3382 23.8945 64.7502 23.9401 65.1531 23.9583ZM32.1188 24.1224C32.0913 24.1953 32.0639 24.168 32.0639 24.0677C32.0547 23.9674 32.0822 23.9127 32.1097 23.9492C32.1371 23.9765 32.1463 24.0586 32.1188 24.1224ZM77.9255 24.1953C78.31 24.405 78.484 24.8062 78.5756 25.727C78.6946 26.8484 78.6854 28.3983 78.5756 28.5077C78.4657 28.6171 78.0903 28.0245 77.7698 27.2313C77.5501 26.6843 77.5226 26.4837 77.5226 25.5173C77.5135 24.4962 77.5684 24.1042 77.6966 24.1042C77.7332 24.1042 77.8339 24.1406 77.9255 24.1953ZM27.724 24.6694C27.6965 24.7424 27.6691 24.715 27.6691 24.6147C27.6599 24.5144 27.6874 24.4597 27.7149 24.4962C27.7423 24.5236 27.7515 24.6056 27.724 24.6694ZM65.9313 24.9703C66.9476 25.107 67.5702 25.262 68.2386 25.5629C69.0169 25.9002 68.9619 25.6267 68.9619 29.7749L68.9528 33.4491H68.5224C68.0006 33.44 65.6658 33.1756 64.5122 32.9932C64.0635 32.9203 63.1754 32.82 62.5437 32.7653C59.7145 32.5556 59.0645 32.4462 59.211 32.2092C59.2384 32.1636 59.2567 30.796 59.2476 29.1732V26.2102L59.4948 25.9367C59.8061 25.6176 60.6484 25.2711 61.7654 25.0341C62.7909 24.8153 64.5763 24.7788 65.9313 24.9703ZM29.1889 26.0826C29.1615 26.1737 29.1432 26.1008 29.1432 25.9276C29.1432 25.7543 29.1615 25.6814 29.1889 25.7635C29.2073 25.8546 29.2073 26.0005 29.1889 26.0826ZM83.3915 26.4017C83.7395 26.7299 83.6662 26.8666 82.9612 27.1401C82.2196 27.4228 82.2287 27.4228 82.2287 27.2587C82.2287 27.1037 82.9612 26.2011 83.0894 26.2011C83.1352 26.2011 83.2725 26.2923 83.3915 26.4017ZM23.3292 31.0969C23.32 31.6439 23.3017 31.1972 23.3017 30.1214C23.3017 29.0456 23.32 28.5989 23.3292 29.1368C23.3475 29.6838 23.3475 30.559 23.3292 31.0969ZM56.8396 31.5163C56.8304 31.9266 56.8121 31.5619 56.8121 30.714C56.8121 29.857 56.8304 29.5288 56.8396 29.9664C56.8579 30.404 56.8579 31.106 56.8396 31.5163ZM58.2404 33.13C60.3829 33.2759 62.443 33.44 62.8184 33.4947C63.5783 33.5858 66.911 34.0235 71.3333 34.5887C72.9173 34.7893 74.2815 34.9807 74.3547 35.0081C74.428 35.0354 74.8034 35.1175 75.1787 35.1813C75.5541 35.2543 77.8431 35.783 80.2602 36.3574C85.8636 37.7067 86.0925 37.7614 86.1749 37.8435C86.2207 37.8891 86.1932 38.3449 86.12 38.8737C86.0467 39.4025 85.5523 43.2134 85.0213 47.3525C84.4902 51.4916 84.0324 55.0108 84.005 55.1658C83.9317 55.5487 83.9134 55.5487 82.1006 55.1111C81.2857 54.9105 80.1778 54.637 79.6193 54.5093C79.07 54.3726 77.2571 53.9441 75.5908 53.5429C73.5124 53.0415 72.1298 52.7589 71.1502 52.6312C69.6211 52.4489 68.6964 52.3304 65.4278 51.911C57.2974 50.8808 51.6024 50.6802 42.1719 51.0814C38.8941 51.2272 34.6458 51.6831 30.8187 52.3213C29.2073 52.5948 27.5226 52.8592 27.0648 52.9139C26.6161 52.9686 26.0119 53.0962 25.7372 53.1874C25.4625 53.2877 24.3547 53.5521 23.2743 53.7891C22.1939 54.017 20.0972 54.5093 18.6231 54.8831C16.3067 55.4666 15.4918 55.6307 15.4826 55.5304C15.4826 55.5213 14.9882 51.601 14.3839 46.8237C13.7888 42.0464 13.3219 38.0714 13.3493 37.9985C13.3768 37.9255 13.4867 37.8526 13.5965 37.8252C18.0188 36.8133 22.3587 35.8286 23.1736 35.6463C24.2906 35.4001 34.4444 33.8229 35.4424 33.7317C41.4028 33.2212 45.2574 32.975 47.4823 32.9568C48.8374 32.9385 49.9727 32.9203 49.991 32.893C50.0093 32.8747 50.9982 32.8565 52.1884 32.8565C53.6534 32.8565 55.6035 32.9477 58.2404 33.13ZM22.0199 33.2759C22.1298 33.3762 22.1664 33.6041 22.1664 34.1602C22.1664 34.5705 22.1298 34.9625 22.084 35.0354C22.0016 35.1631 19.8958 35.6098 19.7676 35.5278C19.7218 35.5095 19.6943 35.4366 19.6943 35.3819C19.6852 35.3181 19.6119 35.1084 19.5112 34.9078C19.2915 34.4611 19.2823 34.1055 19.4746 33.9414C19.6028 33.8411 19.676 33.8502 19.9782 34.0235C20.5641 34.3608 21.1593 34.2787 21.1593 33.8594C21.1593 33.5585 21.4797 33.13 21.7086 33.13C21.8002 33.13 21.9467 33.1938 22.0199 33.2759ZM83.1169 34.8349C83.0894 34.926 83.0711 34.8713 83.0711 34.7255C83.0711 34.5705 83.0894 34.5067 83.1169 34.5614C83.1352 34.6252 83.1352 34.7528 83.1169 34.8349ZM13.1571 42.3837C13.1845 42.5023 13.1937 42.6573 13.1754 42.7211C13.1479 42.7849 12.7725 43.0219 12.3239 43.2499C11.8752 43.4778 11.4999 43.7057 11.4815 43.7513C11.4541 43.8516 12.626 43.7786 13.0014 43.6601C13.2395 43.5872 13.3768 43.8425 13.3768 44.3348C13.3768 44.6265 13.3402 44.7086 13.1754 44.7633C12.9099 44.8453 12.2964 45.2556 12.4154 45.2647C12.4704 45.2738 12.7359 45.2829 13.0106 45.2921L13.5141 45.3012L13.5874 45.8026C13.6515 46.2311 13.6332 46.3223 13.505 46.3952C13.4134 46.4408 13.2212 46.5958 13.0655 46.7326L12.7817 46.9787L13.2395 46.9605L13.6973 46.9422L13.7797 47.4254C13.8621 47.8904 13.8529 47.9178 13.5599 48.2186L13.2669 48.5195L13.5599 48.5104C13.8987 48.4921 13.9445 48.5742 14.0543 49.4768C14.1093 49.9235 14.1001 50.0056 13.9628 50.0603C13.8712 50.0876 13.7247 50.197 13.624 50.2973C13.4409 50.4796 13.4409 50.4796 13.7705 50.4158C14.0635 50.3611 14.1093 50.3793 14.1459 50.5617C14.1734 50.6802 14.21 50.8808 14.2466 51.0267C14.2741 51.1634 14.2558 51.3549 14.2008 51.4552C14.1276 51.601 14.1276 51.674 14.2283 51.7651C14.3839 51.9292 14.5121 52.9139 14.3931 53.0324C14.3382 53.0871 14.3473 53.1874 14.4297 53.315C14.6128 53.5885 14.7136 54.7829 14.5762 54.9561C14.4938 55.0564 14.503 55.0928 14.6037 55.1293C14.6769 55.1567 14.7685 55.339 14.8051 55.5304C14.8326 55.7219 14.9241 55.9681 14.9974 56.0866C15.1622 56.3601 15.0981 56.4513 14.4938 56.7157C13.9628 56.9527 13.8987 57.0986 14.4023 56.9436C15.1622 56.7065 15.4735 56.7157 15.8031 56.9709C15.9771 57.0986 16.1236 57.2627 16.1236 57.3265C16.1236 57.3903 15.9313 57.518 15.6932 57.6091C14.5121 58.0467 12.9465 58.8126 13.0472 58.9037C13.0655 58.9311 13.3036 58.8855 13.5782 58.8034C14.8875 58.4297 15.858 58.1835 16.4257 58.0923L17.0483 57.992L17.3321 58.2655C17.4878 58.4205 17.5885 58.5846 17.561 58.6302C17.5336 58.6758 17.268 58.767 16.975 58.8308C16.4349 58.9493 14.9058 59.4416 13.6057 59.9066C12.6443 60.2622 11.3625 60.8183 10.1356 61.4383C9.58628 61.7118 9.11018 61.9123 9.08271 61.8941C8.982 61.7847 9.7694 56.5151 10.3187 53.6432C10.4469 52.9686 10.5568 52.303 10.5568 52.1663C10.566 51.9931 10.4012 51.7195 10.0258 51.2637C9.16511 50.2152 7.64524 48.5104 6.25355 47.0334C5.23726 45.9576 4.99005 45.6385 5.07245 45.5473C5.20063 45.3924 7.30648 44.3348 8.66154 43.7513C10.099 43.1222 12.6535 42.1649 12.8915 42.1649C13.038 42.1558 13.1113 42.2196 13.1571 42.3837ZM87.2736 42.3837C88.2441 42.7028 89.178 43.0493 89.5992 43.2407C89.8006 43.3319 90.057 43.4413 90.176 43.4778C90.9268 43.7057 94.4976 45.4926 94.4976 45.6385C94.4976 45.6932 93.9391 46.3132 93.2524 47.0243C92.1628 48.1457 90.7254 49.7594 89.5076 51.2181C88.8301 52.0295 88.8484 51.7834 89.3062 54.4182C89.9837 58.22 90.4324 61.3289 90.3591 61.7391C90.3317 61.9215 90.2859 61.9123 89.3703 61.4474C87.5483 60.5174 85.1403 59.5693 83.2359 59.0223C82.3752 58.7761 82.2837 58.7305 82.2471 58.4844C82.1646 57.9465 82.5492 57.9191 84.1515 58.3385C86.3122 58.9129 86.3489 58.922 86.1658 58.7032C86.1017 58.6302 85.9918 58.5664 85.9277 58.5664C85.8545 58.5664 85.7995 58.5208 85.7995 58.4752C85.7995 58.4205 85.7629 58.3841 85.7171 58.3841C85.6713 58.3841 85.4333 58.2929 85.1861 58.1835C84.948 58.0741 84.4353 57.8553 84.0599 57.7094C83.6845 57.5544 83.3732 57.3812 83.3732 57.3265C83.3732 57.2718 83.5106 57.1077 83.6754 56.9709L83.9867 56.7157L84.6825 56.8615C85.6347 57.0712 85.653 57.0621 85.0213 56.7157C84.6917 56.5424 84.4811 56.3692 84.4902 56.2872C84.5726 55.7128 84.7283 55.2205 84.8473 55.1293C84.948 55.0564 84.9572 55.0108 84.8748 54.9652C84.8015 54.9105 84.7832 54.7008 84.8198 54.2358C84.8931 53.4244 84.948 53.2786 85.1678 53.2786C85.3417 53.2786 85.3417 53.2694 85.1678 53.078C85.0213 52.923 84.9846 52.8045 85.0304 52.5127C85.122 51.8472 85.1586 51.7287 85.3051 51.7287C85.415 51.7287 85.4241 51.6922 85.3234 51.519C85.2227 51.3275 85.2135 50.8534 85.3143 50.507C85.3509 50.3702 85.4241 50.352 85.6897 50.3885L86.0101 50.4432L85.8178 50.2699C85.708 50.1697 85.5889 50.0876 85.534 50.0876C85.3875 50.0876 85.3692 49.8779 85.4699 49.1759C85.5706 48.4921 85.5706 48.4921 85.8636 48.4648L86.1658 48.4374L85.8819 48.1822C85.6347 47.9542 85.6072 47.8904 85.6622 47.5713C85.7812 46.8511 85.7721 46.8693 86.2756 46.924L86.7334 46.9787L86.3947 46.7143C86.2024 46.5593 86.0101 46.4408 85.9735 46.4408C85.8545 46.4408 85.8728 45.6385 85.9918 45.4197C86.0834 45.2556 86.1474 45.2374 86.5869 45.2921C86.8708 45.3285 87.0813 45.3103 87.0813 45.2647C87.0813 45.2191 86.8524 45.0459 86.5686 44.8818L86.0559 44.5901L86.12 44.1707C86.1566 43.9427 86.2115 43.7239 86.239 43.6875C86.2756 43.651 86.4679 43.6601 86.6693 43.7057C87.3011 43.8333 88.0976 43.8698 88.061 43.7604C88.0427 43.7057 87.649 43.4778 87.1912 43.259C86.3489 42.8487 86.3489 42.8487 86.3489 42.5023C86.3489 42.0829 86.3763 42.0829 87.2736 42.3837ZM62.5437 52.7042C62.5437 52.7954 62.4613 53.0506 62.3606 53.2694C62.1408 53.7435 62.1408 53.7344 62.3056 53.7344C62.3789 53.7344 62.4521 53.7891 62.4704 53.8438C62.5254 54.0079 63.4043 53.5976 63.853 53.1965C64.4939 52.6221 64.4206 53.1053 63.7339 54.0353C63.3402 54.564 62.9465 54.9105 62.5895 55.0472C62.5437 55.0655 62.6719 55.421 62.8824 55.8404C63.2121 56.5151 63.267 56.7065 63.3128 57.3994C63.3402 57.8735 63.4593 58.5391 63.6058 59.0314L63.8621 59.861L63.679 60.3807C63.5417 60.8001 63.441 60.9186 63.1846 61.0462C62.5345 61.3653 61.9486 61.2103 61.7197 60.6633C61.6556 60.5083 61.4908 60.326 61.3626 60.2531C61.2344 60.1892 60.9048 59.9431 60.6393 59.7151C60.3646 59.4872 60.0716 59.2958 59.9709 59.2958C59.7328 59.2958 58.9821 59.861 58.2679 60.5721C57.8925 60.9368 57.5629 61.3927 57.3157 61.8576C56.9769 62.4958 56.5191 63.0429 56.2353 63.134C56.0888 63.1887 55.8324 64.4833 55.8965 64.9027C55.924 65.1033 55.9057 65.9147 55.8508 66.7079C55.7958 67.6652 55.7958 68.194 55.8508 68.3034C55.9148 68.4128 55.9423 68.4219 55.9515 68.3307C55.9515 68.2304 55.9789 68.2304 56.0888 68.3216C56.1895 68.4036 56.2261 68.4036 56.2261 68.3307C56.2261 68.2669 56.2719 68.2487 56.3452 68.2942C56.4001 68.3307 56.5374 68.3489 56.629 68.3307C56.7663 68.3125 56.7938 68.3489 56.748 68.5222C56.7023 68.7045 56.7023 68.7136 56.8121 68.5769C56.9128 68.4492 56.9769 68.4401 57.3248 68.5222C57.6545 68.6042 57.7369 68.6042 57.8193 68.4857C57.9017 68.3763 57.9749 68.3672 58.0848 68.4219C58.2771 68.5313 58.2771 68.4492 58.0665 68.0937C57.9749 67.9387 57.8193 67.811 57.7002 67.7928C57.4713 67.7563 56.8762 66.9996 56.8671 66.7444C56.8671 66.6532 56.9037 66.4982 56.9586 66.407C57.0227 66.2885 56.9861 66.1153 56.8121 65.7415C56.6199 65.3221 56.5924 65.158 56.6473 64.766C56.6839 64.5107 56.748 64.2828 56.7847 64.2554C56.8304 64.2281 56.8671 64.0913 56.8671 63.9363C56.8671 63.7175 56.9037 63.6719 57.096 63.6719C57.2241 63.6719 57.3248 63.6446 57.334 63.599C57.334 63.5625 57.3523 63.4166 57.3615 63.2799C57.3706 63.052 57.5354 62.8605 57.7094 62.8514C57.801 62.8514 57.9749 63.4166 58.0115 63.8178C58.0207 64.0184 58.0848 64.2828 58.1397 64.3922C58.3961 64.8663 59.2567 65.1033 59.6687 64.8207C59.7695 64.7477 59.9617 64.4013 60.0991 64.0548C60.2364 63.7084 60.447 63.3346 60.5752 63.2161C60.6942 63.1067 60.7674 62.9608 60.7491 62.897C60.685 62.742 60.8773 62.6873 61.2344 62.7329C61.5457 62.7785 61.7105 63.0429 61.564 63.2434C61.2802 63.6081 61.1611 64.2189 61.2252 64.9757C61.2985 65.9056 61.1154 66.4161 60.566 66.8264C60.3646 66.9632 60.0716 67.2002 59.9068 67.337C59.742 67.4828 59.4124 67.6834 59.1926 67.7928C58.7532 67.9934 58.5609 68.2942 58.6524 68.6042C58.7348 68.8595 58.8813 68.8139 58.8813 68.5404C58.8813 68.3398 58.9088 68.3216 59.0919 68.3763C59.3574 68.4583 59.3574 68.4492 59.2842 68.6316C59.2567 68.7136 59.1835 68.7501 59.1377 68.7227C59.0828 68.6863 59.0553 68.7136 59.0828 68.7866C59.1011 68.8504 59.2293 68.9324 59.3574 68.9689C59.5406 69.0145 59.5863 69.0054 59.5497 68.9051C59.5131 68.8139 59.5772 68.7774 59.742 68.7774C59.8702 68.7774 59.98 68.8139 59.98 68.8686C59.98 68.9142 59.9434 68.9598 59.8976 68.9598C59.7695 68.9598 59.6871 69.2515 59.7969 69.3609C59.861 69.4247 59.8885 69.4156 59.8885 69.3427C59.8885 69.2789 59.9709 69.2333 60.0716 69.2333C60.1723 69.2333 60.2547 69.1877 60.2547 69.1421C60.2547 69.0874 60.328 68.978 60.4287 68.8777C60.5752 68.7319 60.6026 68.7227 60.685 68.8595C60.74 68.9415 60.9139 69.0236 61.0879 69.0327C61.2527 69.0418 61.4175 69.0874 61.445 69.133C61.4724 69.1695 61.564 69.2242 61.6556 69.2606C61.738 69.288 61.8112 69.4065 61.8112 69.5159C61.8112 69.68 61.8478 69.6983 62.0401 69.6527C62.1683 69.6162 62.269 69.6253 62.2598 69.6618C62.2232 69.9079 62.2782 69.9718 62.4155 69.8259C62.5437 69.7074 62.5437 69.6618 62.4338 69.525C62.3239 69.3792 62.3331 69.3792 62.4979 69.5068C62.5986 69.5797 62.7176 69.6983 62.7543 69.753C62.8733 69.9444 63.2395 69.8897 63.3494 69.6618C63.441 69.4794 63.4501 69.4703 63.4501 69.6436C63.4593 69.835 63.9628 70.1815 64.1002 70.0994C64.146 70.0721 64.2833 70.145 64.4115 70.2635C64.5671 70.4094 64.8601 70.5097 65.3545 70.6008C66.3342 70.7741 65.8489 70.8288 64.4206 70.7011C61.9852 70.4823 57.2058 70.2179 54.3126 70.1541C49.3684 70.0356 44.763 70.145 39.3336 70.5188C37.8778 70.61 36.3305 70.7194 35.9002 70.7376L35.1219 70.7832L35.7995 70.6008C36.1749 70.5006 36.5502 70.3638 36.6235 70.2909C36.7059 70.227 36.8249 70.1906 36.8982 70.2179C36.9714 70.2362 37.0813 70.1906 37.1454 70.1085C37.2003 70.0265 37.2919 69.9626 37.3285 69.9718C37.3743 69.9809 37.5024 69.9535 37.6215 69.9171C37.7771 69.8624 37.8229 69.7985 37.7954 69.68C37.7497 69.4977 37.8595 69.443 37.9602 69.598C38.0518 69.7438 38.5554 69.7074 38.5554 69.5615C38.5554 69.443 38.592 69.443 38.8117 69.5524C39.004 69.6618 39.0681 69.6618 39.0956 69.5706C39.1505 69.4156 39.297 69.3245 39.5167 69.3245C39.6174 69.3245 39.7548 69.2424 39.8189 69.1421C39.9928 68.8595 39.4252 68.1301 38.8758 67.9204C38.6469 67.8293 38.3356 67.6105 38.1708 67.4099C37.7497 66.9267 37.2736 65.9421 37.2736 65.5591C37.2736 65.2127 37.0172 64.6748 36.8524 64.6748C36.7334 64.6748 36.6326 64.383 36.6326 64.0548C36.6326 63.9454 36.6784 63.8543 36.7242 63.8543C36.7791 63.8543 36.8158 63.7904 36.8158 63.7084C36.8158 63.6355 36.8524 63.5899 36.8982 63.6172C36.9439 63.6537 36.9989 63.6263 37.0172 63.5808C37.063 63.4349 37.5482 63.3802 37.6947 63.4987C37.768 63.5534 37.8229 63.6719 37.8229 63.7631C37.8229 63.8543 37.8961 63.9454 37.9969 63.9728C38.0884 63.991 38.3356 64.2463 38.5462 64.5289C39.0406 65.1853 39.2878 65.313 39.883 65.2218C41.4944 64.9483 41.6592 64.8571 41.6867 64.2372C41.7141 63.5261 41.7233 63.4713 41.8789 62.7602C41.9522 62.3864 42.0712 61.6662 42.1261 61.1648C42.4191 58.5846 42.9685 57.5362 44.4975 56.6154C45.2117 56.1869 45.2666 56.1686 46.0906 56.1231C46.7682 56.0957 47.171 56.1322 48.169 56.3327C49.2128 56.5424 49.7621 56.5971 51.6299 56.6518L53.8548 56.7248L54.2851 56.4877C54.5232 56.3601 54.7521 56.196 54.7887 56.1322C54.8253 56.0684 54.926 56.0136 54.9901 56.0136C55.0634 56.0136 55.1274 55.9772 55.1274 55.9316C55.1274 55.8951 55.2007 55.8587 55.2923 55.8587C55.6402 55.8678 55.9332 55.7219 55.9881 55.5031C56.0522 55.2752 56.1712 55.2205 56.2719 55.3846C56.3177 55.4484 56.4001 55.4119 56.51 55.2934C56.6107 55.184 56.7663 55.1019 56.8487 55.1019C56.9403 55.1019 57.0593 55.0564 57.1234 54.9925C57.2058 54.9105 57.2424 54.9378 57.3065 55.0928L57.3798 55.3025L57.5446 55.0564C57.6636 54.874 57.7277 54.8376 57.7826 54.9196C57.8376 55.0017 57.8742 54.9834 57.92 54.8376C57.9474 54.7373 58.039 54.6461 58.1123 54.6461C58.1855 54.6461 58.2679 54.5823 58.2954 54.5093C58.332 54.4273 58.4693 54.3726 58.6433 54.3726C58.7989 54.3726 59.037 54.3088 59.1835 54.245C59.3391 54.1538 59.4307 54.1447 59.4307 54.2085C59.4307 54.2632 59.5039 54.245 59.5955 54.1629C59.7969 53.9806 59.98 53.9623 59.98 54.1173C59.98 54.172 60.0533 54.1538 60.1632 54.0535C60.2822 53.9441 60.4378 53.9076 60.6576 53.935C60.9414 53.9623 60.9963 53.935 61.0879 53.7162C61.2619 53.3059 61.7105 52.7315 61.9302 52.6404C62.2782 52.5036 62.5437 52.531 62.5437 52.7042ZM23.2193 55.9772C23.613 57.6638 23.8328 58.3658 24.3821 59.7972C27.7606 68.5586 35.305 75.0773 44.4609 77.1195C46.8597 77.6483 47.8119 77.7486 50.6869 77.7486C52.9117 77.7394 53.5435 77.7121 54.5781 77.5571C59.8976 76.7366 64.2284 74.8494 68.44 71.5308C69.319 70.8379 71.3058 68.896 72.0566 68.0025C72.3862 67.6013 72.7341 67.1911 72.8257 67.0908C72.9173 66.9905 73.3293 66.4253 73.7413 65.8327C75.1604 63.8087 76.3873 61.4474 77.2022 59.1681C77.5776 58.147 78.2917 55.5213 78.2917 55.1931C78.2917 55.1019 78.3284 55.0017 78.365 54.9743C78.4474 54.9196 79.2165 55.0928 79.3263 55.1931C79.482 55.3299 78.8136 57.9282 78.1819 59.6604C76.3324 64.7295 73.1278 69.1604 68.8887 72.5245C68.2569 73.026 67.5794 73.5456 67.3871 73.6733C67.1857 73.8009 67.03 73.9468 67.03 73.9832C67.03 74.0288 66.9843 74.0653 66.9293 74.0653C66.8744 74.0653 66.5173 74.2568 66.1419 74.4938C65.556 74.8585 65.4644 74.9405 65.501 75.132C65.5376 75.3326 65.5285 75.3417 65.382 75.2049C65.2263 75.0682 65.1531 75.0864 64.3565 75.5149C61.4633 77.0648 58.1947 78.1041 54.5689 78.642C53.3604 78.8152 52.7927 78.8426 50.5953 78.8426C47.8302 78.8335 46.6217 78.715 44.3236 78.2044C39.5534 77.1377 35.2501 74.977 31.5786 71.8134C26.9 67.7746 23.5947 62.3408 22.2122 56.433C22.0291 55.6399 21.91 54.9561 21.9558 54.9196C22.0474 54.8193 22.6334 54.6552 22.7982 54.6735C22.8806 54.6826 23.0271 55.1202 23.2193 55.9772ZM49.5882 72.7342C49.7072 72.8163 49.7621 72.9713 49.7621 73.1901C49.7621 73.5456 49.4417 73.9468 48.7916 74.3935C48.5993 74.5303 48.4437 74.6761 48.4437 74.7126C48.4437 74.7582 48.6909 74.7947 49.0022 74.7947C49.405 74.7947 49.5515 74.822 49.5241 74.9041C49.4966 74.9861 49.2128 75.0317 48.636 75.0499L47.7936 75.0773L47.931 74.822C48.0042 74.6761 48.3063 74.3753 48.6176 74.1382C49.286 73.6186 49.5241 73.2904 49.3867 73.0715C49.2402 72.8345 48.9289 72.8436 48.6909 73.0989C48.4162 73.3906 48.169 73.418 48.2331 73.1536C48.3521 72.6886 49.1853 72.4334 49.5882 72.7342ZM51.4285 72.798C51.7581 73.1627 51.5475 74.5211 51.108 74.9223C50.8334 75.1776 50.4397 75.1958 50.1558 74.977C49.9544 74.8129 49.9086 74.7126 49.9086 74.3753C49.9086 73.3542 50.3481 72.6066 50.9341 72.6066C51.1447 72.6066 51.3186 72.6704 51.4285 72.798ZM53.2963 72.7889C53.6717 73.1627 53.4336 74.4938 52.9209 74.9223C52.5913 75.2049 52.2983 75.2232 52.0053 74.9861C51.813 74.8311 51.7856 74.7308 51.7947 74.275C51.8039 73.6003 51.9595 73.1445 52.2617 72.8436C52.5547 72.5519 53.0308 72.5245 53.2963 72.7889ZM55.1824 72.798C55.4296 73.0715 55.4021 73.9103 55.1366 74.4573C54.9443 74.8494 54.5323 75.1593 54.1936 75.1593C53.9555 75.1593 53.6625 74.8767 53.6625 74.6488C53.6625 74.3844 53.9006 74.3479 53.983 74.6123C54.102 74.977 54.6788 74.7855 54.8345 74.3388C54.926 74.0835 54.926 74.0744 54.7612 74.1565C53.8731 74.6305 53.3421 73.418 54.1569 72.7707C54.4316 72.5428 54.9626 72.561 55.1824 72.798ZM46.8139 73.3998C46.9055 73.4818 46.9787 73.6186 46.9787 73.7188C46.9787 73.9468 46.6491 73.9377 46.585 73.7006C46.521 73.4727 46.2097 73.4636 45.9808 73.6915C45.761 73.9103 45.6511 74.4938 45.7976 74.667C45.9533 74.8494 46.3195 74.822 46.4477 74.6123C46.5667 74.43 46.8872 74.357 46.8872 74.512C46.8872 74.5667 46.7865 74.7126 46.6674 74.8585C46.4935 75.059 46.3745 75.1137 46.0723 75.1137C45.5962 75.1137 45.3765 74.9041 45.3765 74.4482C45.3765 73.728 45.7702 73.2539 46.3745 73.2448C46.521 73.2448 46.7224 73.3086 46.8139 73.3998Z" fill="white"/>
<path d="M26.14 9.62632C26.0485 9.77219 26.2133 9.88159 26.5246 9.88159C26.7718 9.88159 26.8359 9.84512 26.8359 9.69925C26.8359 9.55338 26.7809 9.52603 26.5154 9.53515C26.3323 9.54426 26.1675 9.58073 26.14 9.62632Z" fill="white"/>
<path d="M26.7443 10.4742C26.7443 10.6109 26.7901 10.6292 27.0648 10.6292C27.3944 10.6292 27.4768 10.6018 27.4768 10.4742C27.4768 10.3739 27.3761 10.3374 27.1106 10.3374C26.845 10.3374 26.7443 10.3739 26.7443 10.4742Z" fill="white"/>
<path d="M26.1034 14.5769C26.1034 14.6772 26.2041 14.7136 26.4696 14.7136C26.7351 14.7136 26.8359 14.6772 26.8359 14.5769C26.8359 14.4766 26.7351 14.4401 26.4696 14.4401C26.2041 14.4401 26.1034 14.4766 26.1034 14.5769Z" fill="white"/>
<path d="M26.7718 15.3519C26.7443 15.4522 26.6436 15.5342 26.552 15.5342C26.4422 15.5342 26.3781 15.5981 26.3781 15.7166C26.3781 15.8716 26.4422 15.8989 26.7443 15.8989C27.0465 15.8989 27.1105 15.8716 27.1105 15.7166C27.1105 15.5981 27.1746 15.5342 27.2937 15.5342C27.4127 15.5342 27.4768 15.4704 27.4768 15.3519C27.4768 15.206 27.4127 15.1696 27.1472 15.1696C26.9 15.1696 26.8084 15.2152 26.7718 15.3519Z" fill="white"/>
<path d="M26.1034 16.5825C26.1034 16.6828 26.2041 16.7192 26.4696 16.7192C26.7351 16.7192 26.8359 16.6828 26.8359 16.5825C26.8359 16.4822 26.7351 16.4457 26.4696 16.4457C26.2041 16.4457 26.1034 16.4822 26.1034 16.5825Z" fill="white"/>
<path d="M41.0458 12.0879C40.9817 12.1517 40.9359 12.3158 40.9359 12.4526C40.9359 12.8173 41.293 12.9814 41.6226 12.7626C41.8698 12.5984 41.9064 12.4343 41.7599 12.1517C41.65 11.9511 41.2197 11.9147 41.0458 12.0879Z" fill="white"/>
<path d="M40.5421 16.1542L40.1027 16.1815L40.7161 17.3576C41.0549 18.0049 41.357 18.5246 41.3936 18.4973C41.4577 18.4517 42.5839 16.3183 42.5839 16.2271C42.5839 16.1724 41.119 16.1177 40.5421 16.1542Z" fill="white"/>
<path d="M39.9928 17.0477C39.9013 17.1388 39.9104 21.1868 40.002 21.1868C40.0386 21.1868 40.3041 20.7127 40.5971 20.1383L41.119 19.0899L40.588 18.0323C40.295 17.4579 40.0294 17.0112 39.9928 17.0477Z" fill="white"/>
<path d="M42.1719 18.0141L41.6226 19.0899L42.1719 20.1566L42.7213 21.2324L42.7487 20.1566C42.7579 19.5731 42.7579 18.6067 42.7487 18.0141L42.7213 16.9474L42.1719 18.0141Z" fill="white"/>
<path d="M40.7069 20.8221L40.1027 22.0073H41.3479C42.0254 22.0073 42.5839 21.9891 42.5839 21.9617C42.5839 21.8523 41.4303 19.6369 41.3753 19.6369C41.3387 19.6369 41.0457 20.1657 40.7069 20.8221Z" fill="white"/>
<path d="M30.6996 28.7264L30.7271 32.355L31.1758 32.3824C31.423 32.4006 31.7251 32.3915 31.835 32.3641L32.0456 32.3094L32.0272 28.7264L32.0089 25.1526L31.3406 25.1252L30.6813 25.0979L30.6996 28.7264Z" fill="white"/>
<path d="M32.1463 28.7538V32.4006H32.7872H33.4281V28.7538V25.107H32.7872H32.1463V28.7538Z" fill="white"/>
<path d="M33.5837 25.1708C33.5105 25.2893 33.5013 31.5983 33.5746 32.0176L33.6386 32.4097L34.2887 32.3823L34.9388 32.355L34.9662 28.7264L34.9846 25.107H34.307C33.9316 25.107 33.602 25.1343 33.5837 25.1708Z" fill="white"/>
<path d="M52.4722 25.8728C52.4722 26.7298 52.4814 26.748 53.1589 26.748C53.8364 26.748 53.8456 26.7298 53.8456 25.8728V25.107H53.1589H52.4722V25.8728Z" fill="white"/>
<path d="M43.2981 25.2621C42.4923 25.2804 42.0345 25.326 42.0345 25.3898C42.0345 25.4718 43.7925 28.0975 44.2594 28.7175C44.4975 29.0275 44.6989 28.9819 44.9919 28.5443C45.1292 28.3346 45.6511 27.5687 46.1547 26.8394C46.6582 26.11 47.0703 25.4627 47.0703 25.3989C47.0703 25.3168 46.8231 25.2895 46.1364 25.2895C45.6145 25.2895 45.0468 25.2713 44.8729 25.2621C44.6989 25.2439 43.9847 25.2439 43.2981 25.2621Z" fill="white"/>
<path d="M35.6255 25.3623C35.6255 25.5264 38.0609 28.9817 38.1891 29C38.2624 29.0182 38.4455 28.8359 38.6011 28.5897C38.7476 28.3527 39.2787 27.5777 39.7731 26.8575C40.2675 26.1372 40.6887 25.499 40.7253 25.4261C40.7619 25.3076 40.414 25.2893 38.1983 25.2893C36.7791 25.2893 35.6255 25.3258 35.6255 25.3623Z" fill="white"/>
<path d="M54.2393 27.14C54.1935 27.2039 54.1661 27.6415 54.1661 28.1156V28.9817L54.6971 29.009L55.219 29.0364V28.07C55.219 27.5412 55.1915 27.1127 55.1549 27.1036C55.1091 27.1036 54.9077 27.0853 54.6971 27.0671C54.4682 27.0489 54.2851 27.0853 54.2393 27.14Z" fill="white"/>
<path d="M27.5866 28.0429L27.6141 28.9819H28.0719H28.5297V28.0702V27.1585L28.0444 27.1312L27.5592 27.1038L27.5866 28.0429Z" fill="white"/>
<path d="M28.96 28.0426L28.9875 28.9817L29.4728 29.009L29.9489 29.0364V28.0791V27.1127H29.4453H28.9326L28.96 28.0426Z" fill="white"/>
<path d="M30.4067 29.3921L30.3609 31.7169L29.8115 31.7625C29.3171 31.799 29.2622 31.8263 29.2347 32.0269C29.2164 32.1454 29.253 32.2822 29.3263 32.3186C29.5185 32.4371 30.37 32.4189 30.4616 32.2822C30.5074 32.2275 30.5257 31.024 30.4982 29.62L30.4524 27.0672L30.4067 29.3921Z" fill="white"/>
<path d="M52.7652 28.0429L52.7927 28.9819H53.2962H53.7998V28.0702V27.1585L53.2688 27.1312L52.7377 27.1038L52.7652 28.0429Z" fill="white"/>
<path d="M27.6049 29.5107C27.5866 29.5745 27.5775 30.0212 27.5866 30.4953L27.6141 31.3523H28.0719H28.5297V30.395V29.4377L28.0902 29.4104C27.7881 29.3921 27.6416 29.4195 27.6049 29.5107Z" fill="white"/>
<path d="M28.9417 30.3948V31.4067L29.4728 31.3794L29.9946 31.352V30.3948V29.4375L29.4728 29.4101L28.9417 29.3828V30.3948Z" fill="white"/>
<path d="M52.7835 29.5107C52.7561 29.5836 52.7561 30.0212 52.7652 30.4953L52.7927 31.3523H53.2962H53.7998L53.8273 30.5774C53.8639 29.4377 53.8456 29.3921 53.2871 29.3921C52.9941 29.3921 52.8201 29.4377 52.7835 29.5107Z" fill="white"/>
<path d="M54.1661 29.5927C54.1386 29.7112 54.1203 30.1489 54.1386 30.5774L54.1661 31.3523H54.6696H55.1732V30.395V29.4377L54.6971 29.4104C54.2668 29.383 54.2118 29.4013 54.1661 29.5927Z" fill="white"/>
<path d="M27.7881 31.89C27.7606 31.9629 27.7515 32.0997 27.7698 32.1909C27.7972 32.3276 27.8888 32.355 28.3832 32.355C28.9509 32.355 28.9784 32.3459 29.0424 32.1088C29.0791 31.9721 29.0791 31.8444 29.0516 31.8171C29.0241 31.7897 28.7403 31.7624 28.4198 31.7624C27.9987 31.7624 27.8247 31.7988 27.7881 31.89Z" fill="white"/>
<path d="M29.3171 32.5739C29.1523 32.6742 29.2713 32.8565 29.491 32.8565C29.5918 32.8565 29.7108 32.9386 29.7657 33.0389C29.8847 33.2577 30.4524 33.2941 30.5257 33.0936C30.5989 32.9204 30.5165 32.8565 30.2144 32.8565C30.0496 32.8565 29.958 32.8018 29.9214 32.6742C29.8756 32.4827 29.5551 32.428 29.3171 32.5739Z" fill="white"/>
<path d="M25.0047 32.9387C25.0047 33.1028 25.0596 33.1301 25.3801 33.1301C25.6822 33.1301 25.7463 33.1028 25.7189 32.966C25.7005 32.8566 25.5907 32.8019 25.3435 32.7837C25.0505 32.7563 25.0047 32.7837 25.0047 32.9387Z" fill="white"/>
<path d="M27.6141 32.8565C27.5042 33.0297 27.7057 33.1483 28.0353 33.1118C28.4747 33.0753 28.4564 32.8201 28.0078 32.7836C27.8247 32.7654 27.6507 32.8018 27.6141 32.8565Z" fill="white"/>
<path d="M31.5969 32.9477C31.5969 33.1119 31.6427 33.1392 31.9448 33.1119C32.1737 33.0936 32.2836 33.0389 32.2836 32.9477C32.2836 32.8566 32.1737 32.8019 31.9448 32.7836C31.6427 32.7563 31.5969 32.7836 31.5969 32.9477Z" fill="white"/>
<path d="M25.7555 33.3307C25.7829 33.3945 25.9661 33.4583 26.1675 33.4766C26.4513 33.4948 26.552 33.5495 26.5887 33.6863C26.6344 33.8413 26.6985 33.8686 26.9915 33.8413C27.4951 33.8048 27.4676 33.5495 26.9549 33.513C26.6894 33.4948 26.5612 33.4401 26.5612 33.3489C26.5612 33.2578 26.4422 33.2213 26.14 33.2213C25.847 33.2213 25.7372 33.2578 25.7555 33.3307Z" fill="white"/>
<path d="M28.7769 33.4675C28.7952 33.586 28.8959 33.6316 29.1248 33.6316C29.3537 33.6316 29.4544 33.586 29.4728 33.4675C29.5002 33.3398 29.4361 33.3125 29.1248 33.3125C28.8135 33.3125 28.7494 33.3398 28.7769 33.4675Z" fill="white"/>
<path d="M23.5764 33.595C23.4848 33.75 23.6771 33.8776 23.961 33.8411C24.1258 33.8229 24.2356 33.75 24.2539 33.6497C24.2814 33.5312 24.2173 33.4947 23.961 33.4947C23.787 33.4947 23.613 33.5403 23.5764 33.595Z" fill="white"/>
<path d="M63.212 25.2984C63.1479 25.3622 63.093 25.4716 63.093 25.5355C63.093 25.5993 62.9465 25.7087 62.7726 25.7816C62.4796 25.9093 62.4521 25.9548 62.4521 26.2831C62.4521 26.6386 62.4704 26.6569 62.7176 26.6569C62.9465 26.6569 62.9923 26.6113 63.0198 26.4107C63.0381 26.2831 63.1022 26.1554 63.1663 26.1281C63.267 26.1007 63.2761 26.201 63.2303 26.6204C63.1205 27.6597 63.1205 27.6597 62.7359 27.6597C62.3239 27.6597 61.9668 27.9423 62.0126 28.2341C62.0309 28.3982 62.1225 28.4438 62.5528 28.5076L63.0564 28.5897V29.4467C63.0472 30.0484 63.0106 30.3036 62.9374 30.3036C62.7542 30.3036 62.7176 30.1487 62.8 29.6472C62.9099 28.9179 62.8824 28.8814 62.2965 28.8085C61.5274 28.7173 61.4999 28.7811 61.3168 30.486C61.1245 32.3641 61.1245 32.4917 61.3534 32.4917C61.564 32.4917 61.5915 32.4006 61.4266 32.2365C61.3442 32.1544 61.3442 32.127 61.4266 32.127C61.4907 32.127 61.564 32.1909 61.5915 32.2638C61.6647 32.4461 61.9852 32.437 62.1957 32.2456C62.3148 32.1453 62.3605 32.1362 62.3605 32.2182C62.3605 32.282 62.2873 32.3914 62.2049 32.4553C62.0492 32.5647 62.0492 32.5738 62.2324 32.5829C62.4796 32.5829 62.5162 32.4917 62.5986 31.6803L62.6627 31.033H62.9557C63.1754 31.033 63.267 31.0786 63.3036 31.2062C63.3402 31.3521 63.4684 31.3886 64.1459 31.4433C64.8418 31.5071 64.97 31.4889 65.0615 31.3612C65.1897 31.188 65.5559 31.1698 65.6109 31.3339C65.6383 31.3977 65.6292 31.6894 65.5926 31.9903C65.4918 32.7288 65.5285 32.9476 65.7665 32.9476C65.9496 32.9476 65.9496 32.9385 65.8123 32.7835C65.7207 32.6923 65.6841 32.5829 65.7207 32.5555C65.7482 32.5191 65.8306 32.5738 65.9039 32.6741C66.0412 32.8655 66.3433 32.9202 66.4349 32.7652C66.4624 32.7105 66.5356 32.6741 66.5905 32.6741C66.6455 32.6741 66.618 32.7561 66.5173 32.8655C66.3433 33.057 66.3433 33.057 66.618 33.0205L66.8835 32.9932L67.0026 31.9903C67.2955 29.4011 67.2955 29.6472 67.0575 29.4102C66.8835 29.237 66.7645 29.2005 66.3616 29.2278L65.8855 29.2552L65.794 29.866C65.6933 30.5042 65.6383 30.6319 65.4827 30.5316C65.4186 30.4951 65.4277 30.4131 65.5102 30.2763C65.5834 30.1669 65.675 29.7931 65.7024 29.4558L65.7665 28.8358L66.3708 28.8996L66.9659 28.9635L66.9018 28.6535C66.8286 28.2706 66.6729 28.1156 66.2884 28.0335L65.9771 27.9697L66.0046 27.4318C66.0412 26.7298 66.1053 26.3833 66.2152 26.3833C66.2609 26.3833 66.2976 26.5201 66.2976 26.6933C66.2976 26.9304 66.3433 27.0124 66.499 27.0489C66.7828 27.1309 66.8469 27.058 66.8469 26.6477C66.8469 26.356 66.8103 26.2739 66.618 26.1828C66.4715 26.1189 66.3891 26.0095 66.3891 25.8819C66.3891 25.5537 66.1236 25.4078 65.382 25.344C63.5691 25.189 63.3219 25.1799 63.212 25.2984ZM65.0615 26.0916L65.7024 26.1554L65.675 26.8392C65.6566 27.213 65.6109 27.5503 65.5742 27.5868C65.501 27.6688 63.6973 27.5686 63.5508 27.4774C63.4684 27.4318 63.4684 27.2312 63.5508 26.6842L63.6607 25.9548L64.0361 25.9913C64.2466 26.0095 64.7136 26.0551 65.0615 26.0916ZM63.917 28.3435C63.917 28.5076 63.8713 28.5714 63.7431 28.5714C63.5233 28.5714 63.4409 28.4529 63.5142 28.2614C63.6057 28.0153 63.917 28.0791 63.917 28.3435ZM65.327 28.2614C65.4644 28.3161 65.5285 28.5805 65.4186 28.6808C65.2996 28.8085 65.0157 28.6261 65.0157 28.4255C65.0157 28.1976 65.0798 28.1703 65.327 28.2614ZM65.0981 29.0729C65.1165 29.1002 65.0981 29.164 65.0432 29.2187C64.8967 29.3646 63.8072 29.2005 63.7522 29.0364C63.7156 28.927 63.8255 28.9179 64.384 28.9726C64.7502 28.9999 65.0707 29.0546 65.0981 29.0729ZM62.3422 29.2461C62.6718 29.0182 62.7726 29.1458 62.4521 29.3828L62.1591 29.5925L61.9394 29.3828C61.8203 29.2734 61.7196 29.1367 61.7196 29.0911C61.7196 29.0364 61.8112 29.082 61.9302 29.1914C62.1225 29.3737 62.1591 29.3828 62.3422 29.2461ZM66.7187 29.6746C67.0758 29.5196 67.085 29.6108 66.7462 29.8569L66.4532 30.0666L66.2426 29.7931C65.9588 29.4467 65.9588 29.3008 66.2518 29.5743C66.4532 29.7566 66.5081 29.7749 66.7187 29.6746ZM64.5396 29.5378C64.8509 29.5834 65.0157 29.6381 65.0157 29.7202C65.0157 29.939 63.7431 29.8204 63.6607 29.5925C63.624 29.4649 63.8163 29.4558 64.5396 29.5378ZM61.8112 29.7566C61.8112 29.8022 61.8936 29.8843 62.0035 29.939C62.15 30.021 62.2324 30.0119 62.3697 29.8843C62.4613 29.8022 62.5437 29.7749 62.5437 29.8204C62.5437 29.9025 62.1591 30.2125 62.0584 30.2125C62.0401 30.2125 61.9394 30.0848 61.8295 29.939C61.7105 29.784 61.6647 29.6655 61.7196 29.6655C61.7654 29.6655 61.8112 29.7019 61.8112 29.7566ZM64.9059 30.176C65.1531 30.2489 64.8967 30.3948 64.5305 30.3857C63.9903 30.3675 63.6149 30.2763 63.5783 30.1487C63.5508 30.0666 63.6973 30.0484 64.1642 30.0848C64.503 30.1122 64.8418 30.1578 64.9059 30.176ZM66.206 30.2581C66.3342 30.4131 66.6272 30.4404 66.7096 30.3036C66.737 30.2489 66.8194 30.2125 66.8744 30.2125C67.0209 30.2216 66.5905 30.5772 66.444 30.5772C66.38 30.5772 66.2335 30.4769 66.1144 30.3492C65.9954 30.2216 65.9405 30.1213 65.9954 30.1213C66.0503 30.1213 66.1419 30.1851 66.206 30.2581ZM62.2873 30.4586C62.6261 30.2672 62.5894 30.4404 62.2507 30.6501C62.0218 30.7868 61.9943 30.7868 61.8203 30.6227C61.7105 30.5316 61.6281 30.4131 61.6281 30.3675C61.6281 30.3128 61.7105 30.3492 61.8203 30.4495C62.0035 30.6136 62.0218 30.6136 62.2873 30.4586ZM64.7319 30.723C64.8326 30.8051 64.5946 30.9418 64.329 30.9418C63.9353 30.9418 63.7339 30.8598 63.7339 30.7048C63.7339 30.6136 63.8438 30.5954 64.2192 30.641C64.4755 30.6683 64.7136 30.7048 64.7319 30.723ZM66.4532 30.9874C66.8377 30.8324 66.8835 30.8416 66.6729 31.0239C66.4074 31.2609 66.3433 31.2609 66.1144 31.033C65.8672 30.7868 65.8855 30.6136 66.1327 30.8507C66.2426 30.951 66.3891 31.0148 66.4532 30.9874ZM62.1866 31.0968C62.5253 30.9054 62.507 31.0786 62.1591 31.2883C61.9211 31.425 61.9027 31.425 61.7288 31.2062C61.6281 31.0877 61.5457 30.9418 61.5457 30.8963C61.5365 30.8416 61.6189 30.9054 61.7196 31.033C61.8936 31.2609 61.9027 31.2609 62.1866 31.0968ZM66.3433 31.6712C66.3891 31.6712 66.499 31.6074 66.5905 31.5162C66.6821 31.4342 66.7553 31.4159 66.7553 31.4615C66.7553 31.5162 66.6455 31.6256 66.5173 31.7168C66.2884 31.8627 66.2701 31.8627 66.0595 31.6621C65.9405 31.5527 65.8398 31.4159 65.8398 31.3703C65.8398 31.3156 65.9313 31.3612 66.0503 31.4706C66.1694 31.58 66.2976 31.6712 66.3433 31.6712ZM62.1316 31.7259C62.4796 31.498 62.5162 31.6074 62.1774 31.8535C61.8753 32.0723 61.7196 32.0176 61.5182 31.6347C61.4266 31.4615 61.445 31.4615 61.6555 31.6621C61.8844 31.8718 61.9027 31.8718 62.1316 31.7259ZM66.0229 32.0815C66.1602 32.2456 66.4074 32.2547 66.5539 32.1088C66.6089 32.0541 66.6821 32.0268 66.7096 32.0541C66.7462 32.0815 66.6455 32.1909 66.499 32.3003L66.2335 32.4826L65.9771 32.2182C65.8306 32.0632 65.7574 31.9447 65.8123 31.9447C65.8672 31.9447 65.9588 32.0085 66.0229 32.0815Z" fill="white"/>
<path d="M51.9778 36.2481C52.1335 37.0868 52.6096 37.4971 53.0765 37.1871C53.3146 37.0321 53.4611 36.7404 53.5435 36.2481C53.5892 35.9837 53.5709 35.9563 53.3603 35.9563C53.1864 35.9563 53.104 36.0201 53.0307 36.2298C52.9666 36.4122 52.8751 36.5033 52.7469 36.5033C52.6096 36.5033 52.5455 36.4304 52.5089 36.2298C52.4631 36.0019 52.4081 35.9563 52.1884 35.9563C51.9412 35.9563 51.932 35.9746 51.9778 36.2481Z" fill="white"/>
<path d="M49.0296 37.497C48.7 37.6429 48.3704 38.1261 48.2605 38.6184C48.1873 38.9466 48.1598 39.9039 48.1873 41.6088C48.2239 44.3804 48.2789 44.6539 48.8282 45.1188C49.2128 45.4379 49.872 45.4379 50.2657 45.1188C50.7967 44.663 50.87 44.2345 50.87 41.3809C50.87 38.5546 50.8242 38.2537 50.284 37.7432C49.991 37.4606 49.3867 37.3512 49.0296 37.497ZM49.6339 41.3809C49.6339 43.7331 49.5881 44.2801 49.4142 43.8333C49.3409 43.6419 49.3409 38.9193 49.4233 38.8463C49.4508 38.8099 49.5149 38.7825 49.5607 38.7825C49.5973 38.7825 49.6339 39.9495 49.6339 41.3809Z" fill="white"/>
<path d="M42.5839 37.6611C42.3459 37.7523 41.9339 38.1808 41.8057 38.4725C41.7416 38.6275 41.6592 38.9557 41.6317 39.2019C41.5493 39.8218 41.7324 44.125 41.8606 44.5718C41.9156 44.7632 42.0987 45.0641 42.2635 45.2282C42.5198 45.4835 42.6297 45.5291 43.0051 45.5291C44.0031 45.5291 44.3876 44.9456 44.4792 43.3227C44.5067 42.7301 44.4975 42.2561 44.4517 42.2287C44.406 42.2105 44.113 42.2105 43.7925 42.2287L43.2065 42.2652L43.2706 43.0036C43.3347 43.8242 43.2157 44.3712 43.0143 44.1706C42.8678 44.0247 42.7945 38.9648 42.941 38.9648C43.1241 38.9648 43.2248 39.4116 43.2248 40.2594V41.0891L43.646 41.0253C43.8841 40.9979 44.1587 40.9706 44.2595 40.9706C44.4334 40.9706 44.4334 40.925 44.3968 39.8492C44.3419 38.5819 44.1679 38.0896 43.6552 37.7796C43.3805 37.6064 42.8769 37.5517 42.5839 37.6611Z" fill="white"/>
<path d="M45.0835 37.661C44.8729 37.6975 44.8729 37.7066 44.8729 39.4024C44.8729 40.3414 44.9004 42.0645 44.937 43.2224L44.9919 45.3467H45.4314C46.1913 45.3467 46.1547 45.4378 46.1547 43.6053C46.1547 42.0372 46.1639 41.9734 46.3378 41.9734C46.5118 41.9734 46.5209 42.0372 46.5209 43.6144V45.2555H47.1161H47.7112V41.4264V37.5972H47.0611H46.4111L46.4385 39.0104C46.466 40.1317 46.4477 40.4326 46.3561 40.4691C46.2829 40.4964 46.1913 40.4964 46.1456 40.46C46.0998 40.4326 46.0632 39.7762 46.0632 39.0012V37.5972L45.6786 37.6063C45.4589 37.6155 45.1933 37.6428 45.0835 37.661Z" fill="white"/>
<path d="M51.3735 41.4265V45.2556H51.8771C52.1518 45.2556 52.3807 45.2465 52.3807 45.2283C52.3898 45.2191 52.5272 44.5354 52.692 43.7057L53.0033 42.2014L53.0124 43.724L53.0216 45.2374L53.5068 45.2738C53.7632 45.2921 54.0013 45.3012 54.0196 45.2921C54.0379 45.2738 54.0745 43.5416 54.102 41.4265L54.1478 37.5882L53.6076 37.6156L53.0674 37.6429L52.7744 39.129C52.6187 39.9495 52.4631 40.6424 52.4356 40.6789C52.4081 40.7062 52.3807 40.0225 52.3807 39.1655V37.5973H51.8771H51.3735V41.4265Z" fill="white"/>
<path d="M56.3543 37.7615C56.1804 37.8709 55.9881 38.1261 55.8508 38.427C55.6402 38.9102 55.631 38.9649 55.631 41.6544C55.631 44.3257 55.6402 44.3986 55.8416 44.818C56.1254 45.3924 56.6748 45.675 57.215 45.5382C57.6087 45.4288 57.7735 45.2739 58.0115 44.8089C58.213 44.4077 58.3595 42.3564 58.3137 40.3324C58.2862 38.6731 58.1397 38.1444 57.6545 37.8253C57.2791 37.5791 56.6931 37.5518 56.3543 37.7615ZM57.0776 41.6453C57.0319 43.2134 56.9678 44.1616 56.9128 44.1616C56.8121 44.1616 56.8121 39.3205 56.9128 39.0743C56.9495 38.974 56.9952 38.9649 57.0593 39.0287C57.1234 39.0925 57.1326 39.9131 57.0776 41.6453Z" fill="white"/>
<path d="M39.6815 37.9348L39.1047 37.9713L39.1139 38.81C39.1139 39.275 39.1688 40.9981 39.2237 42.6574C39.3336 45.5839 39.3428 45.666 39.5167 45.6478C39.6174 45.6387 40.1027 45.6022 40.5971 45.5748L41.4852 45.511V45.2284C41.4852 45.0643 41.4578 44.727 41.4303 44.4808L41.3754 44.0249L40.9267 44.0523L40.4781 44.0888V43.1679V42.2471H40.8443C41.2563 42.2471 41.2563 42.2562 41.1556 41.2534L41.0915 40.6881L40.7436 40.7428L40.3865 40.8066V40.1138C40.3865 39.4573 40.3957 39.4209 40.5971 39.4209C41.1831 39.4117 41.2197 39.3662 41.1922 38.6094L41.1648 37.9166L40.707 37.9074C40.4598 37.9074 39.9928 37.9166 39.6815 37.9348Z" fill="white"/>
<path d="M58.8447 40.2049C58.8173 41.5087 58.7623 43.2226 58.7349 44.0341L58.6891 45.5019L59.037 45.5566C59.7969 45.6842 59.861 45.666 59.9251 45.201C59.9526 44.964 59.9801 44.2346 59.9801 43.5782C59.9801 42.9218 60.0075 41.7366 60.0442 40.9434C60.0991 39.6123 60.1174 39.512 60.273 39.512C60.4562 39.512 60.4562 39.9679 60.3097 45.3925L60.3005 45.666L60.9048 45.6934L61.5091 45.7207L61.5732 43.3229C61.6006 42.001 61.6556 40.287 61.6922 39.5029L61.7471 38.0807L60.9323 38.0168C60.4836 37.9895 59.8427 37.9348 59.5131 37.9074L58.8997 37.8527L58.8447 40.2049Z" fill="white"/>
<path d="M36.9714 38.1898C36.3763 38.2537 35.8727 38.3266 35.8452 38.3539C35.8178 38.3722 35.8635 39.7124 35.9276 41.3352C36.0009 42.9489 36.0375 44.3438 36.0192 44.4441C35.9917 44.5353 35.9093 44.6173 35.8452 44.6173C35.7445 44.6173 35.717 44.7814 35.717 45.3011V45.9849H35.9734C36.4953 45.9849 36.8981 45.8025 37.063 45.5017C37.2003 45.2555 37.2278 44.982 37.2186 43.8424C37.2186 43.0857 37.182 41.8457 37.1454 41.0799C37.0813 39.7488 37.0904 39.6941 37.2552 39.6941C37.4109 39.6941 37.4383 39.7853 37.4933 40.4417C37.5207 40.8611 37.5665 42.0372 37.594 43.0674C37.6215 44.0976 37.6672 45.137 37.6947 45.3831L37.7496 45.8208L38.3173 45.7569C38.6194 45.7296 38.885 45.6931 38.8941 45.6749C38.9033 45.6658 38.8575 44.0794 38.7842 42.1557C38.711 40.2229 38.6469 38.5089 38.6469 38.3448C38.6469 37.9984 38.6835 38.0075 36.9714 38.1898Z" fill="white"/>
<path d="M61.9486 38.6185C62.0401 39.4847 62.443 43.8335 62.4613 44.2528C62.4887 44.8546 62.4704 44.891 62.2324 44.891C62.0401 44.891 62.0126 44.9366 61.976 45.3195C61.9486 45.5657 61.9394 45.7663 61.9486 45.7754C61.9577 45.7845 62.2507 45.821 62.6078 45.8574C63.2487 45.9213 63.2761 45.9121 63.5325 45.6569C63.7339 45.4472 63.8255 45.2466 63.8987 44.7999C63.9811 44.3167 64.4664 39.9314 64.5763 38.6915L64.6037 38.3724L64.0819 38.3268L63.5691 38.2812L63.5142 38.6459C63.4867 38.8465 63.4135 39.822 63.3586 40.8066C63.2945 41.8004 63.2304 42.5936 63.2029 42.5662C63.1846 42.548 63.1113 41.5816 63.0381 40.4237C62.974 39.275 62.8916 38.2812 62.8641 38.2356C62.8367 38.1809 62.5986 38.1445 62.3514 38.1445H61.8936L61.9486 38.6185Z" fill="white"/>
<path d="M64.8326 38.6185C64.8326 38.737 64.7685 40.4419 64.6861 42.4112C64.6037 44.3804 64.5579 46.0124 64.5762 46.0306C64.6312 46.0853 68.8062 46.6141 68.852 46.5685C68.8795 46.5503 68.971 45.128 69.0535 43.4049C69.145 41.6909 69.2366 39.9952 69.2549 39.6396L69.2915 38.9832L68.6597 38.9011L68.0372 38.8191V39.1837C68.0372 39.3934 67.9731 40.7063 67.8998 42.1103C67.8266 43.5143 67.7625 44.736 67.7625 44.818C67.7625 44.9913 67.5336 45.046 67.442 44.891C67.4146 44.8454 67.4512 43.4687 67.5336 41.8277C67.616 40.1957 67.6618 38.8373 67.6343 38.8008C67.561 38.737 66.5447 38.6003 66.4898 38.655C66.444 38.6914 66.2243 43.1679 66.2151 44.1799C66.206 44.6448 66.1877 44.7086 66.0229 44.7086C65.8031 44.7086 65.8031 44.6084 65.9588 40.9889C66.0229 39.6669 66.0503 38.5729 66.0229 38.5547C65.9954 38.5456 65.7207 38.5091 65.4094 38.4726C64.8509 38.4088 64.8326 38.4179 64.8326 38.6185Z" fill="white"/>
<path d="M32.5217 38.7004C32.247 38.746 32.0089 38.8007 31.9998 38.8098C31.9815 38.828 31.9265 40.0224 31.8807 41.472C31.8258 42.9307 31.7617 44.6629 31.7343 45.3285L31.6793 46.541L32.1188 46.4863C32.9154 46.3769 32.8787 46.4134 32.8787 45.6567V44.982H33.1992H33.5105L33.538 45.5928L33.5654 46.2128L34.1056 46.1855C34.4078 46.1763 34.6733 46.1399 34.7007 46.1125C34.7374 46.076 33.7577 39.3021 33.6387 38.8007C33.5837 38.5728 33.4006 38.5545 32.5217 38.7004ZM33.1076 41.8913C33.1809 42.5113 33.2633 43.1586 33.2816 43.3136C33.3182 43.5871 33.2999 43.6145 33.0985 43.6145H32.8787V42.1375C32.8787 41.3261 32.897 40.6879 32.9245 40.7153C32.952 40.7426 33.0344 41.2714 33.1076 41.8913Z" fill="white"/>
<path d="M30.1503 39.0286L29.8481 39.0651L29.8939 39.5392C29.9214 39.8036 29.9672 40.4509 30.0038 40.9888C30.0587 41.937 30.0496 41.9734 29.8756 41.9734C29.7108 41.9734 29.6833 41.8914 29.6376 41.1711C29.4819 39.0469 29.5002 39.1289 29.2256 39.1836C29.0974 39.211 28.8319 39.2566 28.6487 39.293C28.3466 39.3386 28.3008 39.3842 28.3008 39.603C28.3008 39.995 28.7586 46.9331 28.7952 46.9604C28.8044 46.9695 29.0699 46.9422 29.3904 46.8875L29.958 46.7872L29.8848 45.5382C29.7749 43.6874 29.7841 43.4869 29.958 43.4504C30.1228 43.423 30.1503 43.6327 30.2785 45.7388L30.3334 46.7234L30.8553 46.6596C31.1391 46.6322 31.4046 46.5684 31.4504 46.5319C31.4962 46.4863 31.4413 44.9547 31.3314 42.9581C31.2215 41.0344 31.1391 39.3569 31.1391 39.211C31.1391 38.9831 31.1117 38.9648 30.8004 38.9831C30.6081 38.9831 30.3151 39.0104 30.1503 39.0286Z" fill="white"/>
<path d="M69.557 42.2196C69.4746 43.9701 69.3739 45.6841 69.3464 46.0397L69.2915 46.687L69.8683 46.7964C70.1888 46.8511 70.4635 46.8784 70.4818 46.8602C70.5092 46.8328 70.6832 44.3986 70.6923 43.888C70.7015 43.5872 70.7107 43.5781 70.8297 43.7422C70.9396 43.888 70.9579 44.1524 70.9029 45.21C70.8297 46.8328 70.8572 46.9514 71.3058 47.0243C71.4981 47.0608 71.7544 47.1063 71.8826 47.1337L72.1115 47.1702V45.5109C72.1115 43.7604 72.0657 43.5416 71.6903 43.3319C71.4981 43.2316 71.5072 43.2316 71.7727 43.0675C71.9284 42.9672 72.1023 42.8031 72.1573 42.7028C72.2214 42.5934 72.3038 41.9552 72.3496 41.2806C72.3953 40.6059 72.4777 39.9495 72.5327 39.8128C72.5785 39.6851 72.6059 39.5666 72.5968 39.5575C72.5785 39.5392 72.3221 39.4845 72.0199 39.4298C71.2417 39.284 71.26 39.2566 71.0952 41.4447C71.0586 41.9188 70.9853 42.3108 70.9029 42.402C70.7931 42.5479 70.7839 42.4293 70.8297 41.472C70.8572 40.8703 70.9029 40.1227 70.9304 39.8219L70.9762 39.2566L70.3902 39.1563C70.0698 39.1016 69.7859 39.056 69.7676 39.056C69.7401 39.056 69.6486 40.4783 69.557 42.2196Z" fill="white"/>
<path d="M26.1034 39.7034C25.1878 39.8949 25.2794 39.7855 25.2702 40.6789C25.2611 41.1165 25.2336 41.8824 25.197 42.3838L25.142 43.2955L24.8765 41.7456C24.73 40.8886 24.5835 40.1593 24.5469 40.1137C24.4737 40.0407 23.2742 40.214 23.0911 40.3234C23.027 40.369 23.1003 41.618 23.2925 44.116L23.5947 47.854L24.0433 47.8267C24.2905 47.8175 24.5194 47.772 24.5561 47.7355C24.5927 47.699 24.5561 46.8694 24.492 45.8939C24.2997 43.3229 24.3638 43.2043 24.7209 45.4836C24.8948 46.5867 25.0596 47.5258 25.0963 47.5623C25.1329 47.6078 25.316 47.6078 25.4991 47.5805L25.8287 47.5167L25.8379 45.128C25.847 43.8243 25.8653 42.8305 25.8928 42.9308C25.9111 43.0311 26.0027 44.0705 26.0942 45.2374C26.195 46.4044 26.2865 47.3799 26.2957 47.3982C26.314 47.4164 26.552 47.3799 26.8175 47.3343L27.312 47.234L27.257 46.7235C27.2296 46.4409 27.1197 44.9001 27.019 43.2955C26.7992 39.8766 26.7718 39.6031 26.6253 39.6122C26.5612 39.6214 26.3323 39.6578 26.1034 39.7034Z" fill="white"/>
<path d="M72.8898 39.7125C72.8898 39.7763 72.789 41.4903 72.6517 43.5143C72.5235 45.5383 72.432 47.1976 72.4503 47.2067C72.4686 47.2249 72.9355 47.3161 73.4849 47.4073L74.492 47.5896L74.5561 47.2705C74.5927 47.0882 74.6202 46.7508 74.6202 46.5229L74.6294 46.0944L74.199 46.0124C73.7962 45.9485 73.7596 45.9121 73.7687 45.6841C73.7687 45.5474 73.7779 45.1462 73.787 44.7907L73.8053 44.1525L74.2082 44.2072L74.611 44.271L74.6477 43.5599C74.6751 42.7849 74.6385 42.7029 74.2448 42.7029H73.9885V42.01V41.308L74.4371 41.3718L74.8766 41.4265L74.9315 40.7245C74.9498 40.3325 74.959 39.9951 74.9407 39.9769C74.8949 39.9313 73.2743 39.6122 73.0546 39.6122C72.963 39.6031 72.8898 39.6578 72.8898 39.7125Z" fill="white"/>
<path d="M76.369 40.4964C76.369 40.6423 76.2683 42.1922 76.1401 43.9426C76.0119 45.6931 75.902 47.2886 75.8929 47.4891L75.8654 47.8447L76.3507 47.9541C76.607 48.0179 76.8359 48.0544 76.8359 48.0453C76.8451 48.0453 76.9458 47.0333 77.0557 45.8025L77.2571 43.5688L77.2754 45.8572L77.2846 48.1547L77.6508 48.2458C77.8522 48.2914 78.0354 48.3097 78.0537 48.2732C78.072 48.2458 78.2459 47.243 78.4382 46.0578C78.6305 44.8634 78.7953 43.9062 78.8136 43.9244C78.8319 43.9426 78.777 44.9455 78.6854 46.1581C78.5572 47.9906 78.5481 48.3826 78.6488 48.4464C78.777 48.5194 79.4911 48.6561 79.5278 48.6105C79.5735 48.5558 80.1412 41.3534 80.1046 41.1893C80.0863 41.0708 79.9123 40.9887 79.3813 40.8793L78.6854 40.7243L78.4748 41.8731C78.072 44.1341 78.072 44.1432 78.017 42.2469L77.9713 40.5602L77.5043 40.4599C76.3415 40.2047 76.369 40.2047 76.369 40.4964Z" fill="white"/>
<path d="M20.9304 40.6424C20.2711 40.9341 19.969 41.5541 19.969 42.6299C19.969 43.5234 20.2986 46.9969 20.4176 47.4163C20.7198 48.4648 21.5987 48.8295 22.3404 48.2186C22.789 47.8357 22.9355 47.3434 22.9263 46.3041C22.908 45.1827 22.6517 42.1376 22.5326 41.7C22.3953 41.1894 22.0932 40.7883 21.7544 40.6424C21.3698 40.4874 21.2874 40.4874 20.9304 40.6424ZM21.379 42.1741C21.4797 42.639 21.8093 46.9878 21.7544 47.0881C21.7178 47.1428 21.6537 47.1519 21.6079 47.1063C21.5346 47.0334 21.1593 43.1131 21.1593 42.3837C21.1593 41.9552 21.3057 41.8276 21.379 42.1741Z" fill="white"/>
<path d="M17.7899 41.5085L16.4806 41.8276L16.5355 42.247C16.6454 43.1496 16.7644 45.2829 16.7644 46.5958C16.7644 47.7901 16.7461 47.9907 16.6088 48.0636C16.4714 48.1457 16.4714 48.2551 16.5905 49.5041L16.7186 50.8625L16.975 50.8352C17.6159 50.7714 17.6525 50.7167 17.5793 50.0238C17.5427 49.6682 17.5518 49.3856 17.5976 49.3491C17.6434 49.3218 18.0005 49.2215 18.3759 49.1394C19.1999 48.948 19.2365 48.9662 19.2365 49.6956C19.2365 49.9508 19.264 50.1879 19.3097 50.2152C19.3464 50.2335 19.5661 50.2152 19.8042 50.1605C20.207 50.0603 20.2253 50.0511 20.1887 49.7776C20.1429 49.4129 19.969 47.544 19.969 47.3799C19.969 47.316 19.9049 47.2613 19.8316 47.2613C19.6577 47.2613 19.6485 47.1702 19.3647 43.9336C19.2365 42.4293 19.1266 41.1985 19.1175 41.1894C19.1083 41.1803 18.5132 41.3262 17.7899 41.5085ZM18.0554 43.0858C18.0554 43.1496 18.1561 44.1707 18.266 45.3468C18.385 46.5229 18.4491 47.5166 18.4216 47.544C18.3942 47.5804 18.2751 47.6351 18.1653 47.6716C17.9547 47.7263 17.9547 47.7263 17.9547 46.7417C17.9547 46.2038 17.9089 45.1644 17.8631 44.4442C17.8173 43.7148 17.799 43.0949 17.8265 43.0493C17.8997 42.9399 18.0462 42.9581 18.0554 43.0858Z" fill="white"/>
<path d="M81.1666 41.4175C80.8553 41.609 80.6173 42.1013 80.5349 42.7213C80.5074 42.9401 80.4616 43.2409 80.4342 43.3959C80.3975 43.6694 80.4159 43.6877 80.8004 43.788C81.3955 43.9338 81.4047 43.9338 81.4047 43.4506C81.4047 42.9674 81.5603 42.3383 81.6702 42.3383C81.8716 42.3383 81.9723 42.6301 81.9266 43.0495C81.8625 43.6238 81.6977 44.0706 80.8004 46.2222C80.2785 47.4621 80.0313 48.1732 80.0313 48.4103V48.7749L81.1941 49.0576C81.835 49.2126 82.3752 49.3402 82.3752 49.3311C82.3844 49.322 82.4118 49.0849 82.421 48.8114L82.4576 48.31L81.9266 48.1732C81.5237 48.0729 81.4047 48.0091 81.4413 47.8997C81.4596 47.8268 81.7526 47.1795 82.0822 46.4775C82.8971 44.7088 83.1351 43.715 82.9612 42.7942C82.8147 42.0466 82.5949 41.6819 82.1372 41.4449C81.6427 41.1987 81.5329 41.1987 81.1666 41.4175Z" fill="white"/>
<path d="M43.1058 60.6177C43.06 61.192 42.7854 62.8696 42.6297 63.4986C42.5748 63.7083 42.6114 63.763 42.8495 63.8816L43.1241 64.0183L43.3713 63.5169C43.7193 62.8149 43.7284 61.657 43.3896 60.6633L43.1607 59.9795L43.1058 60.6177Z" fill="white"/>
<path d="M46.0815 63.0338C45.7152 63.3894 45.5138 63.6447 45.5138 63.7814C45.5138 63.8999 45.4131 64.374 45.2849 64.839C45.0194 65.8236 45.0102 66.006 45.1933 67.0179C45.3673 68.0117 45.7793 68.814 45.9624 68.5314C45.9899 68.4767 46.1089 68.4037 46.228 68.3673C46.4019 68.3217 46.4569 68.3399 46.4935 68.4949C46.5301 68.6499 46.585 68.6772 46.7865 68.6225C46.9146 68.5952 47.0611 68.5131 47.0978 68.4402C47.2076 68.2579 47.5281 68.4584 47.5281 68.7137C47.5372 68.896 47.5464 68.896 47.6288 68.7502C47.757 68.5405 47.876 68.5587 47.9218 68.7958C47.9584 69.0054 47.9584 69.0054 47.9767 68.7866C47.9859 68.6043 48.0042 68.5861 48.1232 68.6864C48.2422 68.7866 48.3246 68.7684 48.5902 68.6317L48.9198 68.4584L49.0663 68.6681L49.2036 68.8778L49.4142 68.6772C49.6065 68.504 49.6339 68.4949 49.6339 68.6317C49.6339 68.7593 49.6614 68.7684 49.8445 68.6681C49.9544 68.6043 50.2016 68.5678 50.3939 68.5769C50.577 68.5769 50.7326 68.5587 50.7326 68.5222C50.7235 68.3126 50.2107 67.957 49.9178 67.957C49.7163 67.957 49.3409 67.5467 49.0663 67.0179C48.9198 66.7262 48.9015 66.6077 48.9839 66.48C49.112 66.2704 49.112 66.1701 48.9656 66.0242C48.9015 65.9604 48.755 65.7689 48.6359 65.6048C48.5261 65.4498 48.3796 65.3131 48.3063 65.3131C48.2239 65.3131 48.1965 65.2128 48.2056 64.994C48.2239 64.8207 48.1873 64.6658 48.1324 64.6384C48.0683 64.6111 48.1049 64.5381 48.2148 64.447C48.343 64.3467 48.4803 64.3193 48.6726 64.3649C48.8282 64.4014 49.3318 64.4378 49.8079 64.4561C50.7784 64.4834 51.2728 64.6202 52.3532 65.149C53.0582 65.4863 53.1498 65.5683 53.5984 66.2156C54.4041 67.3553 54.395 67.3553 54.395 65.9877C54.395 64.7296 54.2759 63.6994 54.1294 63.5535C54.0196 63.4441 52.4814 63.435 50.8059 63.5353C49.7621 63.59 49.579 63.5808 48.9289 63.3985C48.5352 63.28 47.8943 63.0338 47.4915 62.8424C47.0978 62.6418 46.7498 62.4868 46.7132 62.4868C46.6766 62.4868 46.3928 62.733 46.0815 63.0338Z" fill="white"/>
<path d="M44.0122 65.2947C43.7925 65.7141 43.6551 66.8172 43.7101 67.7107C43.7559 68.6497 43.8474 68.8047 44.1221 68.4583C44.2961 68.2486 44.3327 68.2304 44.4517 68.3398C44.525 68.4218 44.5616 68.5677 44.5341 68.7318C44.4975 68.905 44.5158 68.9688 44.589 68.9233C44.7722 68.8047 44.7081 68.2577 44.47 68.0024C44.2594 67.7836 44.2503 67.7198 44.2503 66.4434C44.2503 65.7141 44.232 65.1032 44.2045 65.0759C44.177 65.0485 44.0946 65.1488 44.0122 65.2947Z" fill="white"/>
<path d="M42.648 66.1792C42.7121 66.2886 42.703 66.4436 42.6206 66.6715C42.5565 66.8538 42.4832 67.1456 42.4466 67.3279C42.4191 67.5194 42.2726 67.7929 42.0804 67.9935C41.9064 68.1849 41.7599 68.3673 41.7599 68.3855C41.7599 68.5222 42.0804 68.6955 42.3642 68.7137L42.7121 68.7319L42.7487 67.7291C42.7762 67.1729 42.7945 66.5894 42.8037 66.4162C42.8128 66.2248 42.7671 66.088 42.6847 66.0607C42.5931 66.0333 42.5839 66.0607 42.648 66.1792Z" fill="white"/>
<path d="M52.0144 67.9112C51.9412 67.9294 51.7214 67.9659 51.5383 68.0023C51.3186 68.0388 51.1904 68.1026 51.1904 68.1938C51.1904 68.3488 51.7764 68.7226 51.813 68.595C51.8588 68.4764 52.1975 68.4764 52.1975 68.595C52.1975 68.6405 52.2983 68.6861 52.4264 68.6861C52.5546 68.6861 52.6553 68.7226 52.6553 68.7773C52.6553 68.9505 52.9209 68.8685 52.9758 68.6861C53.0216 68.5494 53.0857 68.5129 53.2047 68.5494C53.3146 68.5858 53.3878 68.5494 53.4153 68.44C53.4519 68.285 53.4519 68.285 53.5251 68.4491C53.5801 68.5676 53.5709 68.6405 53.4977 68.6679C53.4427 68.6861 53.4244 68.7591 53.4519 68.832C53.4794 68.9049 53.4519 68.9596 53.3878 68.9596C53.3329 68.9596 53.3146 68.9961 53.342 69.0508C53.3695 69.0964 53.4977 69.142 53.6259 69.142C53.754 69.142 53.9372 69.1876 54.0379 69.2331C54.1752 69.3061 54.2118 69.297 54.2118 69.1876C54.2118 69.1146 54.1294 69.0508 54.0287 69.0508C53.928 69.0508 53.8456 69.0052 53.8456 68.9596C53.8456 68.9049 53.7723 68.8685 53.6899 68.8685C53.5892 68.8685 53.5618 68.8411 53.6259 68.7955C53.7449 68.7226 53.9372 68.3761 53.9372 68.2485C53.9372 68.1938 53.8181 68.1118 53.6625 68.0662C53.3695 67.9568 52.2342 67.8565 52.0144 67.9112Z" fill="white"/>
<path d="M40.5422 68.5676C40.3316 68.7681 40.8352 69.1237 41.2014 69.0234C41.293 69.0052 41.4394 69.0234 41.5218 69.069C41.7233 69.1784 41.705 69.0325 41.4944 68.8502C41.1281 68.5402 40.6978 68.4126 40.5422 68.5676Z" fill="white"/>
<path d="M46.1547 68.6406C46.1547 68.7135 46.2005 68.7773 46.2463 68.7773C46.3012 68.7773 46.3378 68.7135 46.3378 68.6406C46.3378 68.5677 46.3012 68.5038 46.2463 68.5038C46.2005 68.5038 46.1547 68.5677 46.1547 68.6406Z" fill="white"/>
<path d="M56.2261 68.9962C56.2261 69.0692 56.2719 69.1603 56.3177 69.1877C56.3726 69.215 56.4092 69.1786 56.4092 69.1056C56.4092 69.0327 56.3726 68.9415 56.3177 68.9142C56.2719 68.8868 56.2261 68.9233 56.2261 68.9962Z" fill="white"/>
<path d="M58.6982 69.1786C58.6982 69.1968 58.7623 69.2424 58.8447 69.2697C58.918 69.2971 58.9546 69.288 58.9271 69.2333C58.8722 69.1421 58.6982 69.1056 58.6982 69.1786Z" fill="white"/>
<path d="M57.2333 69.3793C57.2333 69.5343 57.4347 69.507 57.4896 69.3428C57.508 69.279 57.4622 69.2334 57.3798 69.2334C57.2974 69.2334 57.2333 69.2973 57.2333 69.3793Z" fill="white"/>
<path d="M37.9602 69.8715C37.9877 69.9171 38.0335 69.9626 38.0609 69.9626C38.0793 69.9626 38.0976 69.9171 38.0976 69.8715C38.0976 69.8168 38.0518 69.7803 37.9969 69.7803C37.9511 69.7803 37.9328 69.8168 37.9602 69.8715Z" fill="white"/>
<path d="M50.6136 73.0349C50.4213 73.2537 50.2565 73.9466 50.2932 74.3933C50.3206 74.7033 50.3481 74.7489 50.5678 74.7763C50.8791 74.8127 51.0622 74.5483 51.1996 73.8463C51.282 73.4634 51.282 73.272 51.2087 73.1078C51.0897 72.8435 50.8242 72.8161 50.6136 73.0349Z" fill="white"/>
<path d="M52.4814 73.0534C52.3166 73.2175 52.106 73.9468 52.106 74.3753C52.106 74.6306 52.3074 74.8221 52.5272 74.7765C52.811 74.7218 53.0308 74.3024 53.0857 73.7189C53.1589 72.9439 52.8934 72.6431 52.4814 73.0534Z" fill="white"/>
<path d="M54.3217 73.0899C53.8914 73.5367 54.221 74.1657 54.7246 73.8466C54.8436 73.7646 54.9718 73.5914 54.9992 73.4546C55.1274 72.9623 54.6788 72.7161 54.3217 73.0899Z" fill="white"/>
<path d="M82.1189 35.929C82.183 35.9564 82.2654 35.9473 82.2928 35.9199C82.3295 35.8926 82.2745 35.8652 82.1738 35.8743C82.0731 35.8743 82.0456 35.9017 82.1189 35.929Z" fill="white"/>
<path d="M0.531133 58.9038C0.421263 59.0132 0.467042 59.1044 0.60438 59.0588C0.677626 59.0223 0.741717 58.9676 0.741717 58.922C0.741717 58.8217 0.613536 58.8126 0.531133 58.9038Z" fill="white"/>
</svg>
